<svg id="visual" viewBox="0 0 900 600" width="900" height="600" xmlns="http://www.w3.org/2000/svg" xmlns:xlink="http://www.w3.org/1999/xlink" version="1.1"><g stroke-width="1" stroke-linejoin="bevel"><path d="M445 276L423 236.3L422 296Z" fill="#523117" stroke="#523117"></path><path d="M424 232.1L421 232.3L423 236.3Z" fill="#643b1a" stroke="#643b1a"></path><path d="M423 236.3L362 277L422 296Z" fill="#70421c" stroke="#70421c"></path><path d="M481 266.1L424 232.1L423 236.3Z" fill="#966640" stroke="#966640"></path><path d="M421 232.3L362 277L423 236.3Z" fill="#875731" stroke="#875731"></path><path d="M484 335.9L481 266.1L445 276Z" fill="#70421c" stroke="#70421c"></path><path d="M445 276L481 266.1L423 236.3Z" fill="#966640" stroke="#966640"></path><path d="M481 266.1L464 201.4L424 232.1Z" fill="#643b1a" stroke="#643b1a"></path><path d="M357 217.3L353 228.1L421 232.3Z" fill="#784923" stroke="#784923"></path><path d="M421 232.3L353 228.1L362 277Z" fill="#643b1a" stroke="#643b1a"></path><path d="M371 189.4L357 217.3L421 232.3Z" fill="#643b1a" stroke="#643b1a"></path><path d="M483 265L464 201.4L481 266.1Z" fill="#6a3f1b" stroke="#6a3f1b"></path><path d="M424 232.1L399 163.6L421 232.3Z" fill="#875731" stroke="#875731"></path><path d="M400 361.7L439 343.9L422 296Z" fill="#784923" stroke="#784923"></path><path d="M422 296L460 341.9L445 276Z" fill="#523117" stroke="#523117"></path><path d="M481 266.1L484 335.9L483 265Z" fill="#784923" stroke="#784923"></path><path d="M439 343.9L460 341.9L422 296Z" fill="#523117" stroke="#523117"></path><path d="M399 163.6L371 189.4L421 232.3Z" fill="#875731" stroke="#875731"></path><path d="M295 284.1L344 327.9L362 277Z" fill="#523117" stroke="#523117"></path><path d="M362 277L344 327.9L422 296Z" fill="#5e3819" stroke="#5e3819"></path><path d="M344 327.9L400 361.7L422 296Z" fill="#784923" stroke="#784923"></path><path d="M439 343.9L461 407.6L460 341.9Z" fill="#8e5f39" stroke="#8e5f39"></path><path d="M522 367.9L484 335.9L487 412.7Z" fill="#6a3f1b" stroke="#6a3f1b"></path><path d="M460 341.9L484 335.9L445 276Z" fill="#875731" stroke="#875731"></path><path d="M519 229.1L480 188.4L464 201.4Z" fill="#966640" stroke="#966640"></path><path d="M464 201.4L399 163.6L424 232.1Z" fill="#7f502a" stroke="#7f502a"></path><path d="M428 151.6L399 163.6L464 201.4Z" fill="#8e5f39" stroke="#8e5f39"></path><path d="M536 265L519 229.1L483 265Z" fill="#966640" stroke="#966640"></path><path d="M483 265L519 229.1L464 201.4Z" fill="#523117" stroke="#523117"></path><path d="M480 188.4L428 151.6L464 201.4Z" fill="#643b1a" stroke="#643b1a"></path><path d="M308 201.4L301 241.3L353 228.1Z" fill="#583418" stroke="#583418"></path><path d="M353 228.1L301 241.3L362 277Z" fill="#523117" stroke="#523117"></path><path d="M308 201.4L353 228.1L357 217.3Z" fill="#523117" stroke="#523117"></path><path d="M334 173.4L357 217.3L371 189.4Z" fill="#784923" stroke="#784923"></path><path d="M484 335.9L536 265L483 265Z" fill="#70421c" stroke="#70421c"></path><path d="M301 241.3L295 284.1L362 277Z" fill="#6a3f1b" stroke="#6a3f1b"></path><path d="M519 229.1L506 182.3L480 188.4Z" fill="#523117" stroke="#523117"></path><path d="M480 188.4L505 91.7L428 151.6Z" fill="#8e5f39" stroke="#8e5f39"></path><path d="M545 191.4L506 182.3L519 229.1Z" fill="#6a3f1b" stroke="#6a3f1b"></path><path d="M352 137.6L371 189.4L399 163.6Z" fill="#583418" stroke="#583418"></path><path d="M352 137.6L334 173.4L371 189.4Z" fill="#643b1a" stroke="#643b1a"></path><path d="M334 173.4L308 201.4L357 217.3Z" fill="#643b1a" stroke="#643b1a"></path><path d="M300 346.9L332 362.7L344 327.9Z" fill="#7f502a" stroke="#7f502a"></path><path d="M344 327.9L332 362.7L400 361.7Z" fill="#966640" stroke="#966640"></path><path d="M332 362.7L384 394.7L400 361.7Z" fill="#523117" stroke="#523117"></path><path d="M400 361.7L431 404.7L439 343.9Z" fill="#70421c" stroke="#70421c"></path><path d="M384 394.7L401 398.6L400 361.7Z" fill="#583418" stroke="#583418"></path><path d="M259 267L289 312L295 284.1Z" fill="#523117" stroke="#523117"></path><path d="M295 284.1L289 312L344 327.9Z" fill="#583418" stroke="#583418"></path><path d="M308 201.4L283 228.3L301 241.3Z" fill="#875731" stroke="#875731"></path><path d="M301 241.3L259 267L295 284.1Z" fill="#70421c" stroke="#70421c"></path><path d="M289 161.4L283 228.3L308 201.4Z" fill="#7f502a" stroke="#7f502a"></path><path d="M401 398.6L431 404.7L400 361.7Z" fill="#70421c" stroke="#70421c"></path><path d="M289 312L300 346.9L344 327.9Z" fill="#523117" stroke="#523117"></path><path d="M332 362.7L339 448.6L384 394.7Z" fill="#6a3f1b" stroke="#6a3f1b"></path><path d="M291 358.9L300 349.7L300 346.9Z" fill="#5e3819" stroke="#5e3819"></path><path d="M300 346.9L300 349.7L332 362.7Z" fill="#784923" stroke="#784923"></path><path d="M375 112.7L352 137.6L399 163.6Z" fill="#784923" stroke="#784923"></path><path d="M334 173.4L289 161.4L308 201.4Z" fill="#7f502a" stroke="#7f502a"></path><path d="M536 265L554 224.1L519 229.1Z" fill="#5e3819" stroke="#5e3819"></path><path d="M461 407.6L484 335.9L460 341.9Z" fill="#5e3819" stroke="#5e3819"></path><path d="M484 335.9L522 367.9L536 265Z" fill="#643b1a" stroke="#643b1a"></path><path d="M593 193.4L586 191.3L554 224.1Z" fill="#7f502a" stroke="#7f502a"></path><path d="M431 404.7L461 407.6L439 343.9Z" fill="#784923" stroke="#784923"></path><path d="M554 224.1L545 191.4L519 229.1Z" fill="#875731" stroke="#875731"></path><path d="M392 74.7L375 112.7L428 151.6Z" fill="#784923" stroke="#784923"></path><path d="M233 353.9L291 358.9L289 312Z" fill="#6a3f1b" stroke="#6a3f1b"></path><path d="M289 312L291 358.9L300 346.9Z" fill="#875731" stroke="#875731"></path><path d="M300 349.7L291 358.9L332 362.7Z" fill="#8e5f39" stroke="#8e5f39"></path><path d="M283 228.3L259 267L301 241.3Z" fill="#70421c" stroke="#70421c"></path><path d="M428 151.6L375 112.7L399 163.6Z" fill="#875731" stroke="#875731"></path><path d="M528 120.6L480 188.4L506 182.3Z" fill="#8e5f39" stroke="#8e5f39"></path><path d="M586 191.3L551 181.3L545 191.4Z" fill="#784923" stroke="#784923"></path><path d="M545 191.4L551 181.3L506 182.3Z" fill="#784923" stroke="#784923"></path><path d="M505 439.6L487 412.7L473 457.4Z" fill="#6a3f1b" stroke="#6a3f1b"></path><path d="M461 407.6L487 412.7L484 335.9Z" fill="#5e3819" stroke="#5e3819"></path><path d="M284 135.6L289 161.4L352 137.6Z" fill="#966640" stroke="#966640"></path><path d="M352 137.6L289 161.4L334 173.4Z" fill="#6a3f1b" stroke="#6a3f1b"></path><path d="M283 228.3L250 225.1L259 267Z" fill="#70421c" stroke="#70421c"></path><path d="M289 161.4L250 225.1L283 228.3Z" fill="#875731" stroke="#875731"></path><path d="M487 412.7L543 392.7L522 367.9Z" fill="#7f502a" stroke="#7f502a"></path><path d="M612 289.1L607 243.3L536 265Z" fill="#6a3f1b" stroke="#6a3f1b"></path><path d="M551 181.3L528 120.6L506 182.3Z" fill="#784923" stroke="#784923"></path><path d="M586 191.3L568 161.6L551 181.3Z" fill="#875731" stroke="#875731"></path><path d="M551 181.3L568 161.6L528 120.6Z" fill="#643b1a" stroke="#643b1a"></path><path d="M586 191.3L545 191.4L554 224.1Z" fill="#523117" stroke="#523117"></path><path d="M593 193.4L554 224.1L607 243.3Z" fill="#7f502a" stroke="#7f502a"></path><path d="M343 89.7L284 135.6L352 137.6Z" fill="#523117" stroke="#523117"></path><path d="M289 161.4L253 142.6L250 225.1Z" fill="#875731" stroke="#875731"></path><path d="M192 248.3L230 242.1L184 220.3Z" fill="#966640" stroke="#966640"></path><path d="M250 225.1L230 242.1L259 267Z" fill="#6a3f1b" stroke="#6a3f1b"></path><path d="M259 267L233 353.9L289 312Z" fill="#523117" stroke="#523117"></path><path d="M392 74.7L343 89.7L375 112.7Z" fill="#875731" stroke="#875731"></path><path d="M375 112.7L343 89.7L352 137.6Z" fill="#523117" stroke="#523117"></path><path d="M607 243.3L554 224.1L536 265Z" fill="#5e3819" stroke="#5e3819"></path><path d="M586 191.3L577 143.6L568 161.6Z" fill="#875731" stroke="#875731"></path><path d="M612 289.1L536 265L613 321Z" fill="#5e3819" stroke="#5e3819"></path><path d="M505 91.7L392 74.7L428 151.6Z" fill="#7f502a" stroke="#7f502a"></path><path d="M487 412.7L505 439.6L543 392.7Z" fill="#6a3f1b" stroke="#6a3f1b"></path><path d="M473 457.4L487 412.7L461 407.6Z" fill="#523117" stroke="#523117"></path><path d="M473 457.4L461 407.6L431 404.7Z" fill="#70421c" stroke="#70421c"></path><path d="M388 470.4L431 404.7L401 398.6Z" fill="#966640" stroke="#966640"></path><path d="M520 73.9L505 91.7L528 120.6Z" fill="#966640" stroke="#966640"></path><path d="M528 120.6L505 91.7L480 188.4Z" fill="#523117" stroke="#523117"></path><path d="M613 321L536 265L522 367.9Z" fill="#583418" stroke="#583418"></path><path d="M311 439.4L339 448.6L332 362.7Z" fill="#583418" stroke="#583418"></path><path d="M384 394.7L388 470.4L401 398.6Z" fill="#7f502a" stroke="#7f502a"></path><path d="M425 38.9L388 68.9L392 74.7Z" fill="#523117" stroke="#523117"></path><path d="M392 74.7L388 68.9L343 89.7Z" fill="#6a3f1b" stroke="#6a3f1b"></path><path d="M438 492.3L473 457.4L431 404.7Z" fill="#966640" stroke="#966640"></path><path d="M339 448.6L346 455.4L384 394.7Z" fill="#784923" stroke="#784923"></path><path d="M593 193.4L577 143.6L586 191.3Z" fill="#643b1a" stroke="#643b1a"></path><path d="M568 161.6L577 143.6L528 120.6Z" fill="#5e3819" stroke="#5e3819"></path><path d="M307 443.6L311 439.4L291 358.9Z" fill="#784923" stroke="#784923"></path><path d="M291 358.9L311 439.4L332 362.7Z" fill="#523117" stroke="#523117"></path><path d="M339 448.6L346 480.3L346 455.4Z" fill="#5e3819" stroke="#5e3819"></path><path d="M191 299L233 353.9L259 267Z" fill="#6a3f1b" stroke="#6a3f1b"></path><path d="M609 350.9L613 321L522 367.9Z" fill="#7f502a" stroke="#7f502a"></path><path d="M609 350.9L522 367.9L543 392.7Z" fill="#784923" stroke="#784923"></path><path d="M242 142.4L253 142.6L253 121.6Z" fill="#583418" stroke="#583418"></path><path d="M284 135.6L253 142.6L289 161.4Z" fill="#6a3f1b" stroke="#6a3f1b"></path><path d="M346 455.4L388 470.4L384 394.7Z" fill="#5e3819" stroke="#5e3819"></path><path d="M234 450.6L307 443.6L291 358.9Z" fill="#966640" stroke="#966640"></path><path d="M311 439.4L307 443.6L339 448.6Z" fill="#8e5f39" stroke="#8e5f39"></path><path d="M346 455.4L346 480.3L388 470.4Z" fill="#8e5f39" stroke="#8e5f39"></path><path d="M608 374.7L609 350.9L543 392.7Z" fill="#5e3819" stroke="#5e3819"></path><path d="M253 121.6L253 142.6L284 135.6Z" fill="#583418" stroke="#583418"></path><path d="M253 142.6L242 142.4L250 225.1Z" fill="#583418" stroke="#583418"></path><path d="M536 462.6L543 392.7L505 439.6Z" fill="#643b1a" stroke="#643b1a"></path><path d="M569 455.4L582 401.6L543 392.7Z" fill="#70421c" stroke="#70421c"></path><path d="M626 355.9L630 306L613 321Z" fill="#643b1a" stroke="#643b1a"></path><path d="M613 321L630 306L612 289.1Z" fill="#8e5f39" stroke="#8e5f39"></path><path d="M612 289.1L647 264.1L607 243.3Z" fill="#643b1a" stroke="#643b1a"></path><path d="M607 243.3L660 195.4L593 193.4Z" fill="#643b1a" stroke="#643b1a"></path><path d="M593 193.4L660 195.4L577 143.6Z" fill="#523117" stroke="#523117"></path><path d="M253 121.6L284 135.6L259 88.7Z" fill="#70421c" stroke="#70421c"></path><path d="M249 114.7L253 121.6L259 88.7Z" fill="#966640" stroke="#966640"></path><path d="M563 70.7L520 73.9L528 120.6Z" fill="#70421c" stroke="#70421c"></path><path d="M505 91.7L485 49.7L392 74.7Z" fill="#523117" stroke="#523117"></path><path d="M582 401.6L608 374.7L543 392.7Z" fill="#583418" stroke="#583418"></path><path d="M609 350.9L626 355.9L613 321Z" fill="#875731" stroke="#875731"></path><path d="M438 492.3L480 477.4L473 457.4Z" fill="#875731" stroke="#875731"></path><path d="M473 457.4L480 477.4L505 439.6Z" fill="#5e3819" stroke="#5e3819"></path><path d="M184 220.3L230 242.1L250 225.1Z" fill="#523117" stroke="#523117"></path><path d="M230 242.1L191 299L259 267Z" fill="#7f502a" stroke="#7f502a"></path><path d="M300 478.3L346 480.3L339 448.6Z" fill="#875731" stroke="#875731"></path><path d="M388 470.4L438 492.3L431 404.7Z" fill="#7f502a" stroke="#7f502a"></path><path d="M259 88.7L284 135.6L343 89.7Z" fill="#7f502a" stroke="#7f502a"></path><path d="M253 121.6L249 114.7L242 142.4Z" fill="#5e3819" stroke="#5e3819"></path><path d="M202 150.6L184 220.3L250 225.1Z" fill="#7f502a" stroke="#7f502a"></path><path d="M520 73.9L485 49.7L505 91.7Z" fill="#583418" stroke="#583418"></path><path d="M415 500.3L438 492.3L388 470.4Z" fill="#643b1a" stroke="#643b1a"></path><path d="M485 49.7L425 38.9L392 74.7Z" fill="#966640" stroke="#966640"></path><path d="M303 48.9L259 88.7L343 89.7Z" fill="#583418" stroke="#583418"></path><path d="M192 248.3L191 299L230 242.1Z" fill="#70421c" stroke="#70421c"></path><path d="M608 374.7L626 355.9L609 350.9Z" fill="#643b1a" stroke="#643b1a"></path><path d="M191 299L206 357.7L233 353.9Z" fill="#784923" stroke="#784923"></path><path d="M233 353.9L234 450.6L291 358.9Z" fill="#5e3819" stroke="#5e3819"></path><path d="M307 443.6L300 478.3L339 448.6Z" fill="#784923" stroke="#784923"></path><path d="M480 477.4L536 462.6L505 439.6Z" fill="#6a3f1b" stroke="#6a3f1b"></path><path d="M582 401.6L617 393.7L608 374.7Z" fill="#784923" stroke="#784923"></path><path d="M608 374.7L639 393.6L626 355.9Z" fill="#875731" stroke="#875731"></path><path d="M520 495.3L536 462.6L480 477.4Z" fill="#875731" stroke="#875731"></path><path d="M658 280.1L647 264.1L630 306Z" fill="#875731" stroke="#875731"></path><path d="M630 306L647 264.1L612 289.1Z" fill="#784923" stroke="#784923"></path><path d="M393 542.1L415 500.3L388 470.4Z" fill="#523117" stroke="#523117"></path><path d="M557 478.4L569 455.4L536 462.6Z" fill="#6a3f1b" stroke="#6a3f1b"></path><path d="M202 150.6L250 225.1L242 142.4Z" fill="#6a3f1b" stroke="#6a3f1b"></path><path d="M152 282L178 318L191 299Z" fill="#8e5f39" stroke="#8e5f39"></path><path d="M303 48.9L343 89.7L360 0Z" fill="#875731" stroke="#875731"></path><path d="M249 114.7L202 150.6L242 142.4Z" fill="#7f502a" stroke="#7f502a"></path><path d="M569 455.4L617 393.7L582 401.6Z" fill="#7f502a" stroke="#7f502a"></path><path d="M234 450.6L300 478.3L307 443.6Z" fill="#6a3f1b" stroke="#6a3f1b"></path><path d="M346 480.3L345 532.1L388 470.4Z" fill="#966640" stroke="#966640"></path><path d="M658 280.1L630 306L693 309Z" fill="#8e5f39" stroke="#8e5f39"></path><path d="M684 288.1L658 280.1L693 309Z" fill="#583418" stroke="#583418"></path><path d="M613 104.6L563 70.7L577 143.6Z" fill="#643b1a" stroke="#643b1a"></path><path d="M183 54.7L202 150.6L249 114.7Z" fill="#7f502a" stroke="#7f502a"></path><path d="M520 495.3L480 477.4L497 529.3Z" fill="#8e5f39" stroke="#8e5f39"></path><path d="M536 462.6L569 455.4L543 392.7Z" fill="#875731" stroke="#875731"></path><path d="M152 282L191 299L192 248.3Z" fill="#784923" stroke="#784923"></path><path d="M191 299L178 318L206 357.7Z" fill="#966640" stroke="#966640"></path><path d="M577 143.6L563 70.7L528 120.6Z" fill="#784923" stroke="#784923"></path><path d="M520 73.9L517 25.9L485 49.7Z" fill="#70421c" stroke="#70421c"></path><path d="M660 195.4L607 243.3L647 264.1Z" fill="#8e5f39" stroke="#8e5f39"></path><path d="M360 0L343 89.7L388 68.9Z" fill="#583418" stroke="#583418"></path><path d="M563 70.7L555 63.7L520 73.9Z" fill="#784923" stroke="#784923"></path><path d="M485 49.7L433 15.9L425 38.9Z" fill="#643b1a" stroke="#643b1a"></path><path d="M425 38.9L360 0L388 68.9Z" fill="#583418" stroke="#583418"></path><path d="M434 0L433 15.9L470 0Z" fill="#7f502a" stroke="#7f502a"></path><path d="M178 318L182 355.9L206 357.7Z" fill="#8e5f39" stroke="#8e5f39"></path><path d="M200 416.6L234 450.6L233 353.9Z" fill="#583418" stroke="#583418"></path><path d="M497 529.3L480 477.4L438 492.3Z" fill="#8e5f39" stroke="#8e5f39"></path><path d="M689 234.3L660 195.4L647 264.1Z" fill="#6a3f1b" stroke="#6a3f1b"></path><path d="M612 0L542 0L555 63.7Z" fill="#6a3f1b" stroke="#6a3f1b"></path><path d="M660 195.4L613 104.6L577 143.6Z" fill="#523117" stroke="#523117"></path><path d="M202 150.6L170 200.4L184 220.3Z" fill="#8e5f39" stroke="#8e5f39"></path><path d="M184 220.3L163 230.1L192 248.3Z" fill="#70421c" stroke="#70421c"></path><path d="M520 495.3L557 478.4L536 462.6Z" fill="#8e5f39" stroke="#8e5f39"></path><path d="M650 496.3L639 393.6L617 393.7Z" fill="#5e3819" stroke="#5e3819"></path><path d="M170 200.4L163 230.1L184 220.3Z" fill="#643b1a" stroke="#643b1a"></path><path d="M178 318L168 355.7L182 355.9Z" fill="#8e5f39" stroke="#8e5f39"></path><path d="M682 405.7L639 393.6L682 415.6Z" fill="#643b1a" stroke="#643b1a"></path><path d="M617 393.7L639 393.6L608 374.7Z" fill="#5e3819" stroke="#5e3819"></path><path d="M200 416.6L233 353.9L206 357.7Z" fill="#523117" stroke="#523117"></path><path d="M542 0L517 25.9L555 63.7Z" fill="#5e3819" stroke="#5e3819"></path><path d="M555 63.7L517 25.9L520 73.9Z" fill="#5e3819" stroke="#5e3819"></path><path d="M190 402.7L200 416.6L206 357.7Z" fill="#875731" stroke="#875731"></path><path d="M123 316.9L168 355.7L178 318Z" fill="#6a3f1b" stroke="#6a3f1b"></path><path d="M177 392.6L190 402.7L206 357.7Z" fill="#643b1a" stroke="#643b1a"></path><path d="M177 392.6L206 357.7L182 355.9Z" fill="#6a3f1b" stroke="#6a3f1b"></path><path d="M163 230.1L152 282L192 248.3Z" fill="#8e5f39" stroke="#8e5f39"></path><path d="M434 0L418 0L433 15.9Z" fill="#523117" stroke="#523117"></path><path d="M433 15.9L418 0L425 38.9Z" fill="#5e3819" stroke="#5e3819"></path><path d="M470 0L433 15.9L485 49.7Z" fill="#966640" stroke="#966640"></path><path d="M693 309L630 306L626 355.9Z" fill="#5e3819" stroke="#5e3819"></path><path d="M658 280.1L689 234.3L647 264.1Z" fill="#6a3f1b" stroke="#6a3f1b"></path><path d="M168 355.7L177 392.6L182 355.9Z" fill="#5e3819" stroke="#5e3819"></path><path d="M156 484.3L193 479.3L200 416.6Z" fill="#966640" stroke="#966640"></path><path d="M517 25.9L470 0L485 49.7Z" fill="#643b1a" stroke="#643b1a"></path><path d="M418 0L360 0L425 38.9Z" fill="#70421c" stroke="#70421c"></path><path d="M520 495.3L570 490.3L557 478.4Z" fill="#523117" stroke="#523117"></path><path d="M557 478.4L570 490.3L569 455.4Z" fill="#523117" stroke="#523117"></path><path d="M299 0L264 39.9L303 48.9Z" fill="#70421c" stroke="#70421c"></path><path d="M303 48.9L264 39.9L259 88.7Z" fill="#523117" stroke="#523117"></path><path d="M259 88.7L183 54.7L249 114.7Z" fill="#70421c" stroke="#70421c"></path><path d="M202 150.6L155 183.3L170 200.4Z" fill="#784923" stroke="#784923"></path><path d="M117 195.3L155 183.3L114 181.4Z" fill="#784923" stroke="#784923"></path><path d="M170 200.4L145 206.4L163 230.1Z" fill="#583418" stroke="#583418"></path><path d="M163 230.1L130 242.1L152 282Z" fill="#784923" stroke="#784923"></path><path d="M684 288.1L689 234.3L658 280.1Z" fill="#8e5f39" stroke="#8e5f39"></path><path d="M660 195.4L646 101.7L613 104.6Z" fill="#8e5f39" stroke="#8e5f39"></path><path d="M433 542.1L497 529.3L438 492.3Z" fill="#8e5f39" stroke="#8e5f39"></path><path d="M520 495.3L558 545.1L570 490.3Z" fill="#784923" stroke="#784923"></path><path d="M433 542.1L438 492.3L415 500.3Z" fill="#643b1a" stroke="#643b1a"></path><path d="M308 543.3L345 532.1L300 478.3Z" fill="#523117" stroke="#523117"></path><path d="M300 478.3L345 532.1L346 480.3Z" fill="#643b1a" stroke="#643b1a"></path><path d="M393 542.1L433 542.1L415 500.3Z" fill="#784923" stroke="#784923"></path><path d="M345 532.1L393 542.1L388 470.4Z" fill="#966640" stroke="#966640"></path><path d="M155 183.3L145 206.4L170 200.4Z" fill="#7f502a" stroke="#7f502a"></path><path d="M714 345.9L693 309L626 355.9Z" fill="#875731" stroke="#875731"></path><path d="M684 288.1L736 266L689 234.3Z" fill="#5e3819" stroke="#5e3819"></path><path d="M700 155.6L646 101.7L660 195.4Z" fill="#8e5f39" stroke="#8e5f39"></path><path d="M613 104.6L620 9.9L563 70.7Z" fill="#5e3819" stroke="#5e3819"></path><path d="M218 484.4L244 494.4L234 450.6Z" fill="#6a3f1b" stroke="#6a3f1b"></path><path d="M234 450.6L244 494.4L300 478.3Z" fill="#523117" stroke="#523117"></path><path d="M218 484.4L234 450.6L193 479.3Z" fill="#6a3f1b" stroke="#6a3f1b"></path><path d="M145 206.4L130 242.1L163 230.1Z" fill="#8e5f39" stroke="#8e5f39"></path><path d="M152 282L123 316.9L178 318Z" fill="#643b1a" stroke="#643b1a"></path><path d="M168 355.7L120 394.6L177 392.6Z" fill="#784923" stroke="#784923"></path><path d="M360 0L299 0L303 48.9Z" fill="#784923" stroke="#784923"></path><path d="M712 219.3L693 177.4L660 195.4Z" fill="#5e3819" stroke="#5e3819"></path><path d="M712 219.3L660 195.4L689 234.3Z" fill="#7f502a" stroke="#7f502a"></path><path d="M714 345.9L705 306.9L693 309Z" fill="#6a3f1b" stroke="#6a3f1b"></path><path d="M693 309L705 306.9L684 288.1Z" fill="#875731" stroke="#875731"></path><path d="M714 345.9L626 355.9L639 393.6Z" fill="#70421c" stroke="#70421c"></path><path d="M620 9.9L555 63.7L563 70.7Z" fill="#583418" stroke="#583418"></path><path d="M517 25.9L542 0L470 0Z" fill="#6a3f1b" stroke="#6a3f1b"></path><path d="M193 479.3L234 450.6L200 416.6Z" fill="#70421c" stroke="#70421c"></path><path d="M83 269.1L123 316.9L152 282Z" fill="#5e3819" stroke="#5e3819"></path><path d="M156 484.3L200 416.6L149 483.4Z" fill="#8e5f39" stroke="#8e5f39"></path><path d="M244 494.4L308 543.3L300 478.3Z" fill="#5e3819" stroke="#5e3819"></path><path d="M348 600L412 600L393 542.1Z" fill="#5e3819" stroke="#5e3819"></path><path d="M499 579.1L497 529.3L433 542.1Z" fill="#583418" stroke="#583418"></path><path d="M251 560.1L308 543.3L244 494.4Z" fill="#875731" stroke="#875731"></path><path d="M736 266L712 219.3L689 234.3Z" fill="#5e3819" stroke="#5e3819"></path><path d="M609 498.4L617 393.7L569 455.4Z" fill="#7f502a" stroke="#7f502a"></path><path d="M558 545.1L609 498.4L570 490.3Z" fill="#583418" stroke="#583418"></path><path d="M570 490.3L609 498.4L569 455.4Z" fill="#70421c" stroke="#70421c"></path><path d="M693 177.4L700 155.6L660 195.4Z" fill="#6a3f1b" stroke="#6a3f1b"></path><path d="M713 162.4L700 155.6L693 177.4Z" fill="#966640" stroke="#966640"></path><path d="M650 496.3L682 415.6L639 393.6Z" fill="#583418" stroke="#583418"></path><path d="M682 405.7L714 345.9L639 393.6Z" fill="#8e5f39" stroke="#8e5f39"></path><path d="M63 319.9L117 328L123 316.9Z" fill="#5e3819" stroke="#5e3819"></path><path d="M123 316.9L117 328L168 355.7Z" fill="#523117" stroke="#523117"></path><path d="M145 206.4L117 195.3L130 242.1Z" fill="#966640" stroke="#966640"></path><path d="M130 242.1L83 269.1L152 282Z" fill="#784923" stroke="#784923"></path><path d="M155 183.3L117 195.3L145 206.4Z" fill="#643b1a" stroke="#643b1a"></path><path d="M114 181.4L155 183.3L108 126.6Z" fill="#8e5f39" stroke="#8e5f39"></path><path d="M190 48.9L259 88.7L264 39.9Z" fill="#583418" stroke="#583418"></path><path d="M695 400.6L714 345.9L682 405.7Z" fill="#583418" stroke="#583418"></path><path d="M705 306.9L736 266L684 288.1Z" fill="#523117" stroke="#523117"></path><path d="M200 416.6L190 402.7L149 483.4Z" fill="#523117" stroke="#523117"></path><path d="M184 519.3L251 560.1L244 494.4Z" fill="#7f502a" stroke="#7f502a"></path><path d="M696 406.7L695 400.6L682 405.7Z" fill="#70421c" stroke="#70421c"></path><path d="M299 0L256 0L264 39.9Z" fill="#966640" stroke="#966640"></path><path d="M497 529.3L558 545.1L520 495.3Z" fill="#7f502a" stroke="#7f502a"></path><path d="M499 579.1L558 545.1L497 529.3Z" fill="#7f502a" stroke="#7f502a"></path><path d="M499 579.1L433 542.1L467 600Z" fill="#8e5f39" stroke="#8e5f39"></path><path d="M710 462.4L696 406.7L682 415.6Z" fill="#966640" stroke="#966640"></path><path d="M682 415.6L696 406.7L682 405.7Z" fill="#5e3819" stroke="#5e3819"></path><path d="M741 361.7L745 335.9L714 345.9Z" fill="#8e5f39" stroke="#8e5f39"></path><path d="M205 11.9L190 48.9L264 39.9Z" fill="#70421c" stroke="#70421c"></path><path d="M124 98.6L155 183.3L202 150.6Z" fill="#7f502a" stroke="#7f502a"></path><path d="M63 337.9L108 352.7L117 328Z" fill="#7f502a" stroke="#7f502a"></path><path d="M712 219.3L713 162.4L693 177.4Z" fill="#5e3819" stroke="#5e3819"></path><path d="M700 155.6L692 113.6L646 101.7Z" fill="#8e5f39" stroke="#8e5f39"></path><path d="M635 15.9L620 9.9L613 104.6Z" fill="#523117" stroke="#523117"></path><path d="M744 159.4L713 162.4L712 219.3Z" fill="#6a3f1b" stroke="#6a3f1b"></path><path d="M190 48.9L183 54.7L259 88.7Z" fill="#784923" stroke="#784923"></path><path d="M713 162.4L692 113.6L700 155.6Z" fill="#875731" stroke="#875731"></path><path d="M749 328L736 266L705 306.9Z" fill="#966640" stroke="#966640"></path><path d="M83 269.1L130 242.1L74 254.1Z" fill="#784923" stroke="#784923"></path><path d="M117 328L108 352.7L168 355.7Z" fill="#643b1a" stroke="#643b1a"></path><path d="M108 352.7L120 394.6L168 355.7Z" fill="#7f502a" stroke="#7f502a"></path><path d="M736 266L738 231.1L712 219.3Z" fill="#8e5f39" stroke="#8e5f39"></path><path d="M412 600L433 542.1L393 542.1Z" fill="#966640" stroke="#966640"></path><path d="M635 15.9L613 104.6L646 101.7Z" fill="#7f502a" stroke="#7f502a"></path><path d="M599 566.1L639 506.3L609 498.4Z" fill="#523117" stroke="#523117"></path><path d="M609 498.4L650 496.3L617 393.7Z" fill="#875731" stroke="#875731"></path><path d="M656 522.1L639 506.3L653 541.1Z" fill="#7f502a" stroke="#7f502a"></path><path d="M639 506.3L650 496.3L609 498.4Z" fill="#583418" stroke="#583418"></path><path d="M256 0L223 0L264 39.9Z" fill="#784923" stroke="#784923"></path><path d="M190 48.9L141 27.9L183 54.7Z" fill="#6a3f1b" stroke="#6a3f1b"></path><path d="M620 9.9L612 0L555 63.7Z" fill="#5e3819" stroke="#5e3819"></path><path d="M223 0L205 11.9L264 39.9Z" fill="#6a3f1b" stroke="#6a3f1b"></path><path d="M183 54.7L124 98.6L202 150.6Z" fill="#784923" stroke="#784923"></path><path d="M701 59.7L679 63.9L692 113.6Z" fill="#875731" stroke="#875731"></path><path d="M692 113.6L679 63.9L646 101.7Z" fill="#784923" stroke="#784923"></path><path d="M620 9.9L651 0L612 0Z" fill="#875731" stroke="#875731"></path><path d="M744 159.4L692 113.6L713 162.4Z" fill="#70421c" stroke="#70421c"></path><path d="M679 63.9L635 15.9L646 101.7Z" fill="#70421c" stroke="#70421c"></path><path d="M79 221.3L130 242.1L117 195.3Z" fill="#70421c" stroke="#70421c"></path><path d="M108 352.7L68 364.7L120 394.6Z" fill="#784923" stroke="#784923"></path><path d="M348 600L393 542.1L345 532.1Z" fill="#875731" stroke="#875731"></path><path d="M741 361.7L714 345.9L695 400.6Z" fill="#643b1a" stroke="#643b1a"></path><path d="M714 345.9L745 335.9L705 306.9Z" fill="#7f502a" stroke="#7f502a"></path><path d="M792 268L778 216.3L738 231.1Z" fill="#523117" stroke="#523117"></path><path d="M741 361.7L695 400.6L696 406.7Z" fill="#966640" stroke="#966640"></path><path d="M119 55.7L124 98.6L183 54.7Z" fill="#5e3819" stroke="#5e3819"></path><path d="M114 181.4L79 221.3L117 195.3Z" fill="#7f502a" stroke="#7f502a"></path><path d="M184 519.3L218 484.4L193 479.3Z" fill="#966640" stroke="#966640"></path><path d="M184 519.3L244 494.4L218 484.4Z" fill="#966640" stroke="#966640"></path><path d="M308 543.3L348 600L345 532.1Z" fill="#643b1a" stroke="#643b1a"></path><path d="M412 600L467 600L433 542.1Z" fill="#583418" stroke="#583418"></path><path d="M565 600L599 566.1L558 545.1Z" fill="#6a3f1b" stroke="#6a3f1b"></path><path d="M124 98.6L108 126.6L155 183.3Z" fill="#70421c" stroke="#70421c"></path><path d="M745 335.9L749 328L705 306.9Z" fill="#583418" stroke="#583418"></path><path d="M782 443.6L741 361.7L696 406.7Z" fill="#643b1a" stroke="#643b1a"></path><path d="M745 335.9L821 335.9L749 328Z" fill="#70421c" stroke="#70421c"></path><path d="M149 483.4L190 402.7L177 392.6Z" fill="#70421c" stroke="#70421c"></path><path d="M54 187.4L79 221.3L114 181.4Z" fill="#643b1a" stroke="#643b1a"></path><path d="M251 560.1L289 582.1L308 543.3Z" fill="#7f502a" stroke="#7f502a"></path><path d="M467 600L484 600L499 579.1Z" fill="#643b1a" stroke="#643b1a"></path><path d="M312 600L348 600L308 543.3Z" fill="#7f502a" stroke="#7f502a"></path><path d="M79 221.3L74 254.1L130 242.1Z" fill="#6a3f1b" stroke="#6a3f1b"></path><path d="M83 269.1L62 298L123 316.9Z" fill="#784923" stroke="#784923"></path><path d="M156 484.3L184 519.3L193 479.3Z" fill="#643b1a" stroke="#643b1a"></path><path d="M120 394.6L149 483.4L177 392.6Z" fill="#583418" stroke="#583418"></path><path d="M156 484.3L125 503.3L184 519.3Z" fill="#70421c" stroke="#70421c"></path><path d="M125 503.3L149 483.4L103 473.4Z" fill="#643b1a" stroke="#643b1a"></path><path d="M738 231.1L744 159.4L712 219.3Z" fill="#966640" stroke="#966640"></path><path d="M778 216.3L744 159.4L738 231.1Z" fill="#875731" stroke="#875731"></path><path d="M264 600L289 590.1L289 582.1Z" fill="#643b1a" stroke="#643b1a"></path><path d="M289 582.1L312 600L308 543.3Z" fill="#6a3f1b" stroke="#6a3f1b"></path><path d="M264 600L289 582.1L251 560.1Z" fill="#583418" stroke="#583418"></path><path d="M289 590.1L312 600L289 582.1Z" fill="#583418" stroke="#583418"></path><path d="M639 506.3L656 522.1L650 496.3Z" fill="#5e3819" stroke="#5e3819"></path><path d="M650 496.3L710 462.4L682 415.6Z" fill="#875731" stroke="#875731"></path><path d="M599 566.1L609 498.4L558 545.1Z" fill="#70421c" stroke="#70421c"></path><path d="M540 600L558 545.1L499 579.1Z" fill="#8e5f39" stroke="#8e5f39"></path><path d="M749 61.9L701 59.7L758 74.9Z" fill="#6a3f1b" stroke="#6a3f1b"></path><path d="M679 63.9L651 0L635 15.9Z" fill="#8e5f39" stroke="#8e5f39"></path><path d="M635 15.9L651 0L620 9.9Z" fill="#7f502a" stroke="#7f502a"></path><path d="M691 506.4L710 462.4L650 496.3Z" fill="#643b1a" stroke="#643b1a"></path><path d="M683 0L651 0L679 63.9Z" fill="#966640" stroke="#966640"></path><path d="M749 61.9L699 50.7L701 59.7Z" fill="#8e5f39" stroke="#8e5f39"></path><path d="M701 59.7L699 50.7L679 63.9Z" fill="#7f502a" stroke="#7f502a"></path><path d="M0 256.1L62 298L74 254.1Z" fill="#5e3819" stroke="#5e3819"></path><path d="M74 254.1L62 298L83 269.1Z" fill="#784923" stroke="#784923"></path><path d="M484 600L540 600L499 579.1Z" fill="#70421c" stroke="#70421c"></path><path d="M223 0L178 0L205 11.9Z" fill="#966640" stroke="#966640"></path><path d="M205 11.9L178 0L190 48.9Z" fill="#6a3f1b" stroke="#6a3f1b"></path><path d="M124 98.6L71 118.7L108 126.6Z" fill="#583418" stroke="#583418"></path><path d="M62 298L63 319.9L123 316.9Z" fill="#5e3819" stroke="#5e3819"></path><path d="M68 364.7L0 350.7L35 403.6Z" fill="#5e3819" stroke="#5e3819"></path><path d="M63 319.9L63 337.9L117 328Z" fill="#8e5f39" stroke="#8e5f39"></path><path d="M63 337.9L68 364.7L108 352.7Z" fill="#6a3f1b" stroke="#6a3f1b"></path><path d="M599 566.1L653 541.1L639 506.3Z" fill="#5e3819" stroke="#5e3819"></path><path d="M656 522.1L691 506.4L650 496.3Z" fill="#7f502a" stroke="#7f502a"></path><path d="M639 600L653 541.1L599 566.1Z" fill="#583418" stroke="#583418"></path><path d="M178 0L141 27.9L190 48.9Z" fill="#966640" stroke="#966640"></path><path d="M141 27.9L119 55.7L183 54.7Z" fill="#784923" stroke="#784923"></path><path d="M71 118.7L54 187.4L114 181.4Z" fill="#523117" stroke="#523117"></path><path d="M653 541.1L691 506.4L656 522.1Z" fill="#5e3819" stroke="#5e3819"></path><path d="M792 268L736 266L749 328Z" fill="#643b1a" stroke="#643b1a"></path><path d="M792 268L738 231.1L736 266Z" fill="#583418" stroke="#583418"></path><path d="M758 74.9L701 59.7L692 113.6Z" fill="#5e3819" stroke="#5e3819"></path><path d="M540 600L565 600L558 545.1Z" fill="#8e5f39" stroke="#8e5f39"></path><path d="M206 600L264 600L251 560.1Z" fill="#875731" stroke="#875731"></path><path d="M289 590.1L264 600L312 600Z" fill="#784923" stroke="#784923"></path><path d="M71 118.7L114 181.4L108 126.6Z" fill="#6a3f1b" stroke="#6a3f1b"></path><path d="M0 207.3L0 256.1L74 254.1Z" fill="#523117" stroke="#523117"></path><path d="M68 364.7L63 337.9L0 350.7Z" fill="#8e5f39" stroke="#8e5f39"></path><path d="M84 51.9L71 118.7L124 98.6Z" fill="#6a3f1b" stroke="#6a3f1b"></path><path d="M149 483.4L125 503.3L156 484.3Z" fill="#523117" stroke="#523117"></path><path d="M184 519.3L206 600L251 560.1Z" fill="#523117" stroke="#523117"></path><path d="M103 473.4L149 483.4L120 394.6Z" fill="#966640" stroke="#966640"></path><path d="M95 465.4L103 473.4L120 394.6Z" fill="#6a3f1b" stroke="#6a3f1b"></path><path d="M821 335.9L745 335.9L741 361.7Z" fill="#875731" stroke="#875731"></path><path d="M821 335.9L792 268L749 328Z" fill="#583418" stroke="#583418"></path><path d="M699 50.7L683 0L679 63.9Z" fill="#5e3819" stroke="#5e3819"></path><path d="M752 0L683 0L699 50.7Z" fill="#6a3f1b" stroke="#6a3f1b"></path><path d="M56 401.6L95 465.4L120 394.6Z" fill="#875731" stroke="#875731"></path><path d="M103 473.4L109 542.1L125 503.3Z" fill="#523117" stroke="#523117"></path><path d="M804 225.1L790 206.3L778 216.3Z" fill="#8e5f39" stroke="#8e5f39"></path><path d="M778 216.3L790 206.3L744 159.4Z" fill="#8e5f39" stroke="#8e5f39"></path><path d="M68 364.7L56 401.6L120 394.6Z" fill="#875731" stroke="#875731"></path><path d="M35 403.6L56 401.6L68 364.7Z" fill="#875731" stroke="#875731"></path><path d="M63 337.9L63 319.9L0 323.9Z" fill="#643b1a" stroke="#643b1a"></path><path d="M178 0L131 0L141 27.9Z" fill="#643b1a" stroke="#643b1a"></path><path d="M141 27.9L95 0L119 55.7Z" fill="#70421c" stroke="#70421c"></path><path d="M119 55.7L84 51.9L124 98.6Z" fill="#875731" stroke="#875731"></path><path d="M792 268L804 225.1L778 216.3Z" fill="#966640" stroke="#966640"></path><path d="M758 74.9L692 113.6L768 91.7Z" fill="#523117" stroke="#523117"></path><path d="M692 113.6L744 159.4L768 91.7Z" fill="#6a3f1b" stroke="#6a3f1b"></path><path d="M768 91.7L744 159.4L772 92.6Z" fill="#784923" stroke="#784923"></path><path d="M772 92.6L744 159.4L810 117.6Z" fill="#8e5f39" stroke="#8e5f39"></path><path d="M188 600L206 600L184 519.3Z" fill="#784923" stroke="#784923"></path><path d="M95 0L84 51.9L119 55.7Z" fill="#875731" stroke="#875731"></path><path d="M0 207.3L79 221.3L54 187.4Z" fill="#875731" stroke="#875731"></path><path d="M810 117.6L744 159.4L790 206.3Z" fill="#966640" stroke="#966640"></path><path d="M768 91.7L772 92.6L758 74.9Z" fill="#523117" stroke="#523117"></path><path d="M769 0L752 0L749 61.9Z" fill="#784923" stroke="#784923"></path><path d="M565 600L639 600L599 566.1Z" fill="#643b1a" stroke="#643b1a"></path><path d="M749 520.3L749 499.3L691 506.4Z" fill="#8e5f39" stroke="#8e5f39"></path><path d="M157 579.1L184 519.3L109 542.1Z" fill="#643b1a" stroke="#643b1a"></path><path d="M157 579.1L188 600L184 519.3Z" fill="#875731" stroke="#875731"></path><path d="M56 401.6L57 464.4L95 465.4Z" fill="#875731" stroke="#875731"></path><path d="M109 542.1L184 519.3L125 503.3Z" fill="#583418" stroke="#583418"></path><path d="M0 310L63 319.9L62 298Z" fill="#875731" stroke="#875731"></path><path d="M57 464.4L103 473.4L95 465.4Z" fill="#966640" stroke="#966640"></path><path d="M691 506.4L749 499.3L710 462.4Z" fill="#875731" stroke="#875731"></path><path d="M710 462.4L782 443.6L696 406.7Z" fill="#583418" stroke="#583418"></path><path d="M792 268L830 223.1L804 225.1Z" fill="#643b1a" stroke="#643b1a"></path><path d="M749 520.3L691 506.4L740 541.1Z" fill="#583418" stroke="#583418"></path><path d="M779 465.4L782 443.6L710 462.4Z" fill="#643b1a" stroke="#643b1a"></path><path d="M159 600L158 581.1L157 579.1Z" fill="#523117" stroke="#523117"></path><path d="M157 579.1L158 581.1L188 600Z" fill="#5e3819" stroke="#5e3819"></path><path d="M58 0L67 55.9L84 51.9Z" fill="#583418" stroke="#583418"></path><path d="M84 51.9L67 55.9L71 118.7Z" fill="#583418" stroke="#583418"></path><path d="M35 403.6L57 464.4L56 401.6Z" fill="#6a3f1b" stroke="#6a3f1b"></path><path d="M826 409.7L821 335.9L741 361.7Z" fill="#70421c" stroke="#70421c"></path><path d="M44 534.3L109 542.1L103 473.4Z" fill="#523117" stroke="#523117"></path><path d="M749 499.3L763 491.4L710 462.4Z" fill="#643b1a" stroke="#643b1a"></path><path d="M749 520.3L763 491.4L749 499.3Z" fill="#70421c" stroke="#70421c"></path><path d="M763 491.4L779 465.4L710 462.4Z" fill="#7f502a" stroke="#7f502a"></path><path d="M782 443.6L826 409.7L741 361.7Z" fill="#966640" stroke="#966640"></path><path d="M852 241.3L830 223.1L792 268Z" fill="#583418" stroke="#583418"></path><path d="M804 225.1L830 204.4L790 206.3Z" fill="#7f502a" stroke="#7f502a"></path><path d="M0 180.4L54 187.4L10 124.6Z" fill="#5e3819" stroke="#5e3819"></path><path d="M0 207.3L74 254.1L79 221.3Z" fill="#875731" stroke="#875731"></path><path d="M131 0L95 0L141 27.9Z" fill="#5e3819" stroke="#5e3819"></path><path d="M830 223.1L830 204.4L804 225.1Z" fill="#583418" stroke="#583418"></path><path d="M0 256.1L0 310L62 298Z" fill="#523117" stroke="#523117"></path><path d="M35 403.6L0 469.4L57 464.4Z" fill="#6a3f1b" stroke="#6a3f1b"></path><path d="M740 541.1L691 506.4L653 541.1Z" fill="#7f502a" stroke="#7f502a"></path><path d="M782 530.3L824 451.6L779 465.4Z" fill="#875731" stroke="#875731"></path><path d="M0 97.6L34 92.7L0 64.7Z" fill="#583418" stroke="#583418"></path><path d="M67 55.9L34 92.7L71 118.7Z" fill="#7f502a" stroke="#7f502a"></path><path d="M0 310L0 323.9L63 319.9Z" fill="#784923" stroke="#784923"></path><path d="M0 180.4L0 207.3L54 187.4Z" fill="#643b1a" stroke="#643b1a"></path><path d="M830 204.4L810 117.6L790 206.3Z" fill="#5e3819" stroke="#5e3819"></path><path d="M769 0L749 61.9L798 0Z" fill="#7f502a" stroke="#7f502a"></path><path d="M749 61.9L752 0L699 50.7Z" fill="#70421c" stroke="#70421c"></path><path d="M74 600L159 600L157 579.1Z" fill="#70421c" stroke="#70421c"></path><path d="M158 581.1L159 600L188 600Z" fill="#5e3819" stroke="#5e3819"></path><path d="M0 323.9L0 350.7L63 337.9Z" fill="#70421c" stroke="#70421c"></path><path d="M10 124.6L54 187.4L71 118.7Z" fill="#6a3f1b" stroke="#6a3f1b"></path><path d="M693 600L740 541.1L653 541.1Z" fill="#7f502a" stroke="#7f502a"></path><path d="M824 451.6L782 443.6L779 465.4Z" fill="#5e3819" stroke="#5e3819"></path><path d="M749 61.9L758 74.9L798 0Z" fill="#643b1a" stroke="#643b1a"></path><path d="M0 97.6L10 124.6L34 92.7Z" fill="#966640" stroke="#966640"></path><path d="M34 92.7L10 124.6L71 118.7Z" fill="#784923" stroke="#784923"></path><path d="M639 600L693 600L653 541.1Z" fill="#523117" stroke="#523117"></path><path d="M779 465.4L763 491.4L782 530.3Z" fill="#7f502a" stroke="#7f502a"></path><path d="M824 451.6L826 409.7L782 443.6Z" fill="#643b1a" stroke="#643b1a"></path><path d="M872 292L852 241.3L792 268Z" fill="#523117" stroke="#523117"></path><path d="M830 223.1L852 241.3L830 204.4Z" fill="#7f502a" stroke="#7f502a"></path><path d="M830 204.4L828 108.7L810 117.6Z" fill="#7f502a" stroke="#7f502a"></path><path d="M872 292L792 268L821 335.9Z" fill="#875731" stroke="#875731"></path><path d="M0 350.7L0 407.6L35 403.6Z" fill="#583418" stroke="#583418"></path><path d="M57 464.4L44 534.3L103 473.4Z" fill="#966640" stroke="#966640"></path><path d="M826 409.7L844 370.9L821 335.9Z" fill="#7f502a" stroke="#7f502a"></path><path d="M836 100.6L828 108.7L900 132.6Z" fill="#7f502a" stroke="#7f502a"></path><path d="M810 117.6L828 108.7L772 92.6Z" fill="#784923" stroke="#784923"></path><path d="M693 600L705 600L740 541.1Z" fill="#7f502a" stroke="#7f502a"></path><path d="M740 541.1L782 530.3L749 520.3Z" fill="#583418" stroke="#583418"></path><path d="M798 0L758 74.9L840 50.7Z" fill="#643b1a" stroke="#643b1a"></path><path d="M705 600L741 571.1L740 541.1Z" fill="#583418" stroke="#583418"></path><path d="M95 0L58 0L84 51.9Z" fill="#6a3f1b" stroke="#6a3f1b"></path><path d="M782 530.3L763 491.4L749 520.3Z" fill="#5e3819" stroke="#5e3819"></path><path d="M826 409.7L856 390.7L844 370.9Z" fill="#70421c" stroke="#70421c"></path><path d="M0 64.7L34 92.7L0 57.9Z" fill="#8e5f39" stroke="#8e5f39"></path><path d="M10 124.6L0 97.6L0 180.4Z" fill="#523117" stroke="#523117"></path><path d="M900 132.6L828 108.7L830 204.4Z" fill="#643b1a" stroke="#643b1a"></path><path d="M828 108.7L836 100.6L772 92.6Z" fill="#583418" stroke="#583418"></path><path d="M741 571.1L782 530.3L740 541.1Z" fill="#7f502a" stroke="#7f502a"></path><path d="M900 315.9L821 335.9L844 370.9Z" fill="#523117" stroke="#523117"></path><path d="M900 315.9L872 292L821 335.9Z" fill="#523117" stroke="#523117"></path><path d="M852 241.3L890 199.4L830 204.4Z" fill="#523117" stroke="#523117"></path><path d="M870 395.6L856 390.7L826 409.7Z" fill="#643b1a" stroke="#643b1a"></path><path d="M0 469.4L44 534.3L57 464.4Z" fill="#583418" stroke="#583418"></path><path d="M109 542.1L74 600L157 579.1Z" fill="#875731" stroke="#875731"></path><path d="M0 57.9L34 92.7L67 55.9Z" fill="#583418" stroke="#583418"></path><path d="M0 407.6L0 469.4L35 403.6Z" fill="#5e3819" stroke="#5e3819"></path><path d="M58 0L0 57.9L67 55.9Z" fill="#875731" stroke="#875731"></path><path d="M840 50.7L758 74.9L772 92.6Z" fill="#7f502a" stroke="#7f502a"></path><path d="M871 465.4L870 395.6L826 409.7Z" fill="#643b1a" stroke="#643b1a"></path><path d="M856 390.7L870 395.6L844 370.9Z" fill="#784923" stroke="#784923"></path><path d="M871 465.4L826 409.7L824 451.6Z" fill="#6a3f1b" stroke="#6a3f1b"></path><path d="M885 47.9L840 50.7L836 100.6Z" fill="#6a3f1b" stroke="#6a3f1b"></path><path d="M836 100.6L840 50.7L772 92.6Z" fill="#523117" stroke="#523117"></path><path d="M705 600L755 600L741 571.1Z" fill="#643b1a" stroke="#643b1a"></path><path d="M741 571.1L755 600L782 530.3Z" fill="#523117" stroke="#523117"></path><path d="M838 544.1L871 465.4L824 451.6Z" fill="#6a3f1b" stroke="#6a3f1b"></path><path d="M44 572.1L109 542.1L44 534.3Z" fill="#875731" stroke="#875731"></path><path d="M44 572.1L74 600L109 542.1Z" fill="#7f502a" stroke="#7f502a"></path><path d="M900 246.1L852 241.3L872 292Z" fill="#966640" stroke="#966640"></path><path d="M900 235.3L890 199.4L852 241.3Z" fill="#966640" stroke="#966640"></path><path d="M0 538.3L44 572.1L44 534.3Z" fill="#5e3819" stroke="#5e3819"></path><path d="M900 315.9L900 283L872 292Z" fill="#5e3819" stroke="#5e3819"></path><path d="M900 283L900 246.1L872 292Z" fill="#784923" stroke="#784923"></path><path d="M900 246.1L900 235.3L852 241.3Z" fill="#5e3819" stroke="#5e3819"></path><path d="M870 395.6L900 315.9L844 370.9Z" fill="#6a3f1b" stroke="#6a3f1b"></path><path d="M900 235.3L900 192.4L890 199.4Z" fill="#70421c" stroke="#70421c"></path><path d="M890 199.4L900 132.6L830 204.4Z" fill="#6a3f1b" stroke="#6a3f1b"></path><path d="M885 47.9L844 22.9L840 50.7Z" fill="#875731" stroke="#875731"></path><path d="M840 50.7L844 22.9L798 0Z" fill="#6a3f1b" stroke="#6a3f1b"></path><path d="M0 469.4L0 529.1L44 534.3Z" fill="#583418" stroke="#583418"></path><path d="M58 0L0 0L0 57.9Z" fill="#643b1a" stroke="#643b1a"></path><path d="M838 544.1L824 451.6L782 530.3Z" fill="#643b1a" stroke="#643b1a"></path><path d="M870 395.6L900 411.7L900 315.9Z" fill="#523117" stroke="#523117"></path><path d="M0 529.1L0 538.3L44 534.3Z" fill="#875731" stroke="#875731"></path><path d="M44 572.1L25 600L74 600Z" fill="#70421c" stroke="#70421c"></path><path d="M900 192.4L900 132.6L890 199.4Z" fill="#523117" stroke="#523117"></path><path d="M817 585.1L838 544.1L782 530.3Z" fill="#966640" stroke="#966640"></path><path d="M900 419.6L870 395.6L871 465.4Z" fill="#643b1a" stroke="#643b1a"></path><path d="M900 419.6L900 411.7L870 395.6Z" fill="#8e5f39" stroke="#8e5f39"></path><path d="M900 132.6L900 114.7L836 100.6Z" fill="#966640" stroke="#966640"></path><path d="M900 481.4L900 419.6L871 465.4Z" fill="#523117" stroke="#523117"></path><path d="M885 47.9L850 0L844 22.9Z" fill="#966640" stroke="#966640"></path><path d="M844 22.9L850 0L798 0Z" fill="#6a3f1b" stroke="#6a3f1b"></path><path d="M755 600L817 585.1L782 530.3Z" fill="#643b1a" stroke="#643b1a"></path><path d="M0 600L25 600L44 572.1Z" fill="#966640" stroke="#966640"></path><path d="M900 114.7L885 47.9L836 100.6Z" fill="#966640" stroke="#966640"></path><path d="M755 600L819 600L817 585.1Z" fill="#875731" stroke="#875731"></path><path d="M817 585.1L833 600L838 544.1Z" fill="#8e5f39" stroke="#8e5f39"></path><path d="M900 511.3L900 481.4L871 465.4Z" fill="#7f502a" stroke="#7f502a"></path><path d="M900 114.7L900 50.9L885 47.9Z" fill="#523117" stroke="#523117"></path><path d="M885 47.9L900 0L850 0Z" fill="#70421c" stroke="#70421c"></path><path d="M878 543.3L871 465.4L838 544.1Z" fill="#8e5f39" stroke="#8e5f39"></path><path d="M0 538.3L0 600L44 572.1Z" fill="#523117" stroke="#523117"></path><path d="M819 600L833 600L817 585.1Z" fill="#966640" stroke="#966640"></path><path d="M833 600L878 543.3L838 544.1Z" fill="#7f502a" stroke="#7f502a"></path><path d="M878 543.3L900 511.3L871 465.4Z" fill="#875731" stroke="#875731"></path><path d="M900 50.9L900 0L885 47.9Z" fill="#583418" stroke="#583418"></path><path d="M900 600L900 533.1L878 543.3Z" fill="#5e3819" stroke="#5e3819"></path><path d="M878 543.3L900 533.1L900 511.3Z" fill="#5e3819" stroke="#5e3819"></path><path d="M833 600L900 600L878 543.3Z" fill="#6a3f1b" stroke="#6a3f1b"></path></g></svg>