<svg id="visual" viewBox="0 0 900 600" width="900" height="600" xmlns="http://www.w3.org/2000/svg" xmlns:xlink="http://www.w3.org/1999/xlink" version="1.1"><g stroke-width="1" stroke-linejoin="bevel"><path d="M460 321.9L432 238.3L430 317Z" fill="#693a14" stroke="#693a14"></path><path d="M460 321.9L476 236.3L432 238.3Z" fill="#4c290e" stroke="#4c290e"></path><path d="M432 238.3L410 304L430 317Z" fill="#60330e" stroke="#60330e"></path><path d="M410 304L414 313.9L430 317Z" fill="#47260e" stroke="#47260e"></path><path d="M505 272L480 233.1L476 236.3Z" fill="#693a14" stroke="#693a14"></path><path d="M476 236.3L454 191.4L432 238.3Z" fill="#562e0e" stroke="#562e0e"></path><path d="M460 321.9L505 272L476 236.3Z" fill="#4c290e" stroke="#4c290e"></path><path d="M432 238.3L398 249.1L410 304Z" fill="#47260e" stroke="#47260e"></path><path d="M511 322L518 266.1L505 272Z" fill="#8c562b" stroke="#8c562b"></path><path d="M505 272L518 266.1L480 233.1Z" fill="#693a14" stroke="#693a14"></path><path d="M460 321.9L511 322L505 272Z" fill="#7a481f" stroke="#7a481f"></path><path d="M591 283.1L529 252.1L518 266.1Z" fill="#60330e" stroke="#60330e"></path><path d="M518 266.1L529 252.1L480 233.1Z" fill="#512b0e" stroke="#512b0e"></path><path d="M517 203.3L454 191.4L480 233.1Z" fill="#4c290e" stroke="#4c290e"></path><path d="M480 233.1L454 191.4L476 236.3Z" fill="#47260e" stroke="#47260e"></path><path d="M432 238.3L381 181.4L398 249.1Z" fill="#5b300e" stroke="#5b300e"></path><path d="M529 252.1L517 203.3L480 233.1Z" fill="#8c562b" stroke="#8c562b"></path><path d="M341 235.3L351 279.1L398 249.1Z" fill="#834f25" stroke="#834f25"></path><path d="M398 249.1L351 279.1L410 304Z" fill="#8c562b" stroke="#8c562b"></path><path d="M410 304L356 310L414 313.9Z" fill="#4c290e" stroke="#4c290e"></path><path d="M351 279.1L356 310L410 304Z" fill="#47260e" stroke="#47260e"></path><path d="M512 362.9L460 321.9L430 405.7Z" fill="#693a14" stroke="#693a14"></path><path d="M514 368.9L512 362.9L430 405.7Z" fill="#693a14" stroke="#693a14"></path><path d="M460 321.9L430 317L430 405.7Z" fill="#693a14" stroke="#693a14"></path><path d="M460 321.9L512 362.9L511 322Z" fill="#693a14" stroke="#693a14"></path><path d="M511 322L559 325.9L518 266.1Z" fill="#7a481f" stroke="#7a481f"></path><path d="M517 203.3L471 171.4L454 191.4Z" fill="#512b0e" stroke="#512b0e"></path><path d="M352 209.3L341 235.3L398 249.1Z" fill="#60330e" stroke="#60330e"></path><path d="M602 229.3L543 218.3L529 252.1Z" fill="#5b300e" stroke="#5b300e"></path><path d="M529 252.1L543 218.3L517 203.3Z" fill="#8c562b" stroke="#8c562b"></path><path d="M475 93.7L448 133.6L516 100.6Z" fill="#60330e" stroke="#60330e"></path><path d="M381 363.9L430 317L414 313.9Z" fill="#512b0e" stroke="#512b0e"></path><path d="M512 362.9L537 355.7L511 322Z" fill="#834f25" stroke="#834f25"></path><path d="M356 310L381 363.9L414 313.9Z" fill="#60330e" stroke="#60330e"></path><path d="M514 368.9L523 366.7L512 362.9Z" fill="#47260e" stroke="#47260e"></path><path d="M523 366.7L537 355.7L512 362.9Z" fill="#8c562b" stroke="#8c562b"></path><path d="M351 279.1L337 292L356 310Z" fill="#512b0e" stroke="#512b0e"></path><path d="M356 310L343 380.7L381 363.9Z" fill="#562e0e" stroke="#562e0e"></path><path d="M537 355.7L559 325.9L511 322Z" fill="#47260e" stroke="#47260e"></path><path d="M381 181.4L432 238.3L454 191.4Z" fill="#834f25" stroke="#834f25"></path><path d="M351 279.1L341 235.3L337 292Z" fill="#562e0e" stroke="#562e0e"></path><path d="M379 156.6L381 181.4L454 191.4Z" fill="#714119" stroke="#714119"></path><path d="M381 181.4L352 209.3L398 249.1Z" fill="#714119" stroke="#714119"></path><path d="M381 363.9L411 397.7L430 317Z" fill="#60330e" stroke="#60330e"></path><path d="M514 368.9L541 401.6L523 366.7Z" fill="#8c562b" stroke="#8c562b"></path><path d="M411 397.7L430 405.7L430 317Z" fill="#5b300e" stroke="#5b300e"></path><path d="M381 181.4L348 191.4L352 209.3Z" fill="#4c290e" stroke="#4c290e"></path><path d="M352 209.3L329 180.4L341 235.3Z" fill="#512b0e" stroke="#512b0e"></path><path d="M608 285L591 283.1L559 325.9Z" fill="#47260e" stroke="#47260e"></path><path d="M559 325.9L591 283.1L518 266.1Z" fill="#834f25" stroke="#834f25"></path><path d="M448 133.6L379 156.6L454 191.4Z" fill="#512b0e" stroke="#512b0e"></path><path d="M381 181.4L379 156.6L348 191.4Z" fill="#60330e" stroke="#60330e"></path><path d="M533 157.4L471 171.4L517 203.3Z" fill="#4c290e" stroke="#4c290e"></path><path d="M471 171.4L448 133.6L454 191.4Z" fill="#5b300e" stroke="#5b300e"></path><path d="M566 151.6L533 157.4L543 218.3Z" fill="#5b300e" stroke="#5b300e"></path><path d="M543 218.3L533 157.4L517 203.3Z" fill="#47260e" stroke="#47260e"></path><path d="M343 380.7L386 408.6L381 363.9Z" fill="#60330e" stroke="#60330e"></path><path d="M381 363.9L386 408.6L411 397.7Z" fill="#693a14" stroke="#693a14"></path><path d="M411 397.7L422 433.6L430 405.7Z" fill="#60330e" stroke="#60330e"></path><path d="M321 369.9L343 380.7L356 310Z" fill="#714119" stroke="#714119"></path><path d="M523 366.7L541 401.6L537 355.7Z" fill="#834f25" stroke="#834f25"></path><path d="M537 355.7L573 395.7L559 325.9Z" fill="#60330e" stroke="#60330e"></path><path d="M477 448.6L541 401.6L514 368.9Z" fill="#8c562b" stroke="#8c562b"></path><path d="M477 448.6L514 368.9L430 405.7Z" fill="#4c290e" stroke="#4c290e"></path><path d="M646 314.9L608 285L559 325.9Z" fill="#693a14" stroke="#693a14"></path><path d="M591 283.1L602 229.3L529 252.1Z" fill="#8c562b" stroke="#8c562b"></path><path d="M331 157.6L329 180.4L348 191.4Z" fill="#512b0e" stroke="#512b0e"></path><path d="M348 191.4L329 180.4L352 209.3Z" fill="#47260e" stroke="#47260e"></path><path d="M286 244.1L295 298L337 292Z" fill="#60330e" stroke="#60330e"></path><path d="M337 292L295 298L356 310Z" fill="#4c290e" stroke="#4c290e"></path><path d="M286 244.1L337 292L341 235.3Z" fill="#8c562b" stroke="#8c562b"></path><path d="M610 253.1L602 229.3L591 283.1Z" fill="#562e0e" stroke="#562e0e"></path><path d="M385 429.6L422 433.6L386 408.6Z" fill="#7a481f" stroke="#7a481f"></path><path d="M386 408.6L422 433.6L411 397.7Z" fill="#8c562b" stroke="#8c562b"></path><path d="M295 298L321 369.9L356 310Z" fill="#5b300e" stroke="#5b300e"></path><path d="M330 395.7L385 429.6L386 408.6Z" fill="#7a481f" stroke="#7a481f"></path><path d="M608 285L610 253.1L591 283.1Z" fill="#60330e" stroke="#60330e"></path><path d="M646 314.9L615 282L608 285Z" fill="#47260e" stroke="#47260e"></path><path d="M608 285L615 282L610 253.1Z" fill="#47260e" stroke="#47260e"></path><path d="M330 395.7L386 408.6L343 380.7Z" fill="#60330e" stroke="#60330e"></path><path d="M539 448.4L573 395.7L541 401.6Z" fill="#47260e" stroke="#47260e"></path><path d="M541 401.6L573 395.7L537 355.7Z" fill="#8c562b" stroke="#8c562b"></path><path d="M329 180.4L286 244.1L341 235.3Z" fill="#834f25" stroke="#834f25"></path><path d="M305 414.6L330 395.7L321 369.9Z" fill="#47260e" stroke="#47260e"></path><path d="M321 369.9L330 395.7L343 380.7Z" fill="#8c562b" stroke="#8c562b"></path><path d="M603 184.3L566 151.6L543 218.3Z" fill="#4c290e" stroke="#4c290e"></path><path d="M516 100.6L448 133.6L471 171.4Z" fill="#4c290e" stroke="#4c290e"></path><path d="M381 100.7L331 157.6L379 156.6Z" fill="#8c562b" stroke="#8c562b"></path><path d="M379 156.6L331 157.6L348 191.4Z" fill="#5b300e" stroke="#5b300e"></path><path d="M329 180.4L253 195.3L286 244.1Z" fill="#5b300e" stroke="#5b300e"></path><path d="M423 471.4L477 448.6L422 433.6Z" fill="#714119" stroke="#714119"></path><path d="M422 433.6L477 448.6L430 405.7Z" fill="#714119" stroke="#714119"></path><path d="M642 178.4L607 192.4L602 229.3Z" fill="#7a481f" stroke="#7a481f"></path><path d="M602 229.3L607 192.4L543 218.3Z" fill="#562e0e" stroke="#562e0e"></path><path d="M642 178.4L602 229.3L662 186.3Z" fill="#714119" stroke="#714119"></path><path d="M607 192.4L603 184.3L543 218.3Z" fill="#714119" stroke="#714119"></path><path d="M250 324.9L287 356.9L295 298Z" fill="#60330e" stroke="#60330e"></path><path d="M295 298L287 356.9L321 369.9Z" fill="#512b0e" stroke="#512b0e"></path><path d="M516 100.6L471 171.4L533 157.4Z" fill="#7a481f" stroke="#7a481f"></path><path d="M448 133.6L381 100.7L379 156.6Z" fill="#562e0e" stroke="#562e0e"></path><path d="M566 151.6L516 100.6L533 157.4Z" fill="#562e0e" stroke="#562e0e"></path><path d="M599 111.6L516 100.6L566 151.6Z" fill="#7a481f" stroke="#7a481f"></path><path d="M433 69.7L381 100.7L448 133.6Z" fill="#5b300e" stroke="#5b300e"></path><path d="M381 100.7L313 146.6L331 157.6Z" fill="#562e0e" stroke="#562e0e"></path><path d="M331 157.6L313 146.6L329 180.4Z" fill="#5b300e" stroke="#5b300e"></path><path d="M477 448.6L539 448.4L541 401.6Z" fill="#512b0e" stroke="#512b0e"></path><path d="M359 488.4L423 471.4L385 429.6Z" fill="#4c290e" stroke="#4c290e"></path><path d="M385 429.6L423 471.4L422 433.6Z" fill="#693a14" stroke="#693a14"></path><path d="M477 448.6L474 475.4L539 448.4Z" fill="#562e0e" stroke="#562e0e"></path><path d="M645 363.9L646 314.9L559 325.9Z" fill="#693a14" stroke="#693a14"></path><path d="M615 282L682 274L610 253.1Z" fill="#7a481f" stroke="#7a481f"></path><path d="M645 363.9L559 325.9L573 395.7Z" fill="#562e0e" stroke="#562e0e"></path><path d="M455 485.3L474 475.4L477 448.6Z" fill="#714119" stroke="#714119"></path><path d="M287 356.9L305 414.6L321 369.9Z" fill="#8c562b" stroke="#8c562b"></path><path d="M330 395.7L319 453.4L385 429.6Z" fill="#562e0e" stroke="#562e0e"></path><path d="M253 195.3L246 260.1L286 244.1Z" fill="#562e0e" stroke="#562e0e"></path><path d="M286 244.1L246 260.1L295 298Z" fill="#714119" stroke="#714119"></path><path d="M287 356.9L249 371.7L305 414.6Z" fill="#4c290e" stroke="#4c290e"></path><path d="M240 277.1L250 324.9L295 298Z" fill="#7a481f" stroke="#7a481f"></path><path d="M423 471.4L455 485.3L477 448.6Z" fill="#693a14" stroke="#693a14"></path><path d="M474 475.4L550 525.3L539 448.4Z" fill="#512b0e" stroke="#512b0e"></path><path d="M455 485.3L469 485.4L474 475.4Z" fill="#7a481f" stroke="#7a481f"></path><path d="M451 54.9L433 69.7L475 93.7Z" fill="#693a14" stroke="#693a14"></path><path d="M475 93.7L433 69.7L448 133.6Z" fill="#562e0e" stroke="#562e0e"></path><path d="M606 430.6L645 363.9L573 395.7Z" fill="#512b0e" stroke="#512b0e"></path><path d="M246 260.1L240 277.1L295 298Z" fill="#714119" stroke="#714119"></path><path d="M272 141.6L280 153.4L313 146.6Z" fill="#47260e" stroke="#47260e"></path><path d="M313 146.6L280 153.4L329 180.4Z" fill="#8c562b" stroke="#8c562b"></path><path d="M246 260.1L237 279L240 277.1Z" fill="#4c290e" stroke="#4c290e"></path><path d="M272 141.6L313 146.6L292 88.7Z" fill="#7a481f" stroke="#7a481f"></path><path d="M240 277.1L237 279L250 324.9Z" fill="#4c290e" stroke="#4c290e"></path><path d="M196 227.3L237 279L246 260.1Z" fill="#693a14" stroke="#693a14"></path><path d="M607 192.4L642 178.4L603 184.3Z" fill="#693a14" stroke="#693a14"></path><path d="M613 124.6L599 111.6L566 151.6Z" fill="#5b300e" stroke="#5b300e"></path><path d="M662 186.3L602 229.3L610 253.1Z" fill="#512b0e" stroke="#512b0e"></path><path d="M280 153.4L253 195.3L329 180.4Z" fill="#5b300e" stroke="#5b300e"></path><path d="M639 441.6L606 430.6L628 461.4Z" fill="#714119" stroke="#714119"></path><path d="M539 448.4L606 430.6L573 395.7Z" fill="#60330e" stroke="#60330e"></path><path d="M433 69.7L398 65.9L381 100.7Z" fill="#4c290e" stroke="#4c290e"></path><path d="M280 427.6L319 453.4L305 414.6Z" fill="#47260e" stroke="#47260e"></path><path d="M305 414.6L319 453.4L330 395.7Z" fill="#60330e" stroke="#60330e"></path><path d="M423 471.4L430 522.3L455 485.3Z" fill="#47260e" stroke="#47260e"></path><path d="M669 355.7L659 354.7L645 363.9Z" fill="#5b300e" stroke="#5b300e"></path><path d="M645 363.9L659 354.7L646 314.9Z" fill="#60330e" stroke="#60330e"></path><path d="M682 274L662 186.3L610 253.1Z" fill="#4c290e" stroke="#4c290e"></path><path d="M613 124.6L566 151.6L603 184.3Z" fill="#8c562b" stroke="#8c562b"></path><path d="M516 100.6L478 56.7L475 93.7Z" fill="#512b0e" stroke="#512b0e"></path><path d="M642 178.4L613 124.6L603 184.3Z" fill="#47260e" stroke="#47260e"></path><path d="M527 61.7L478 56.7L516 100.6Z" fill="#60330e" stroke="#60330e"></path><path d="M433 69.7L451 54.9L398 65.9Z" fill="#5b300e" stroke="#5b300e"></path><path d="M221 362.7L249 371.7L250 324.9Z" fill="#834f25" stroke="#834f25"></path><path d="M250 324.9L249 371.7L287 356.9Z" fill="#693a14" stroke="#693a14"></path><path d="M478 56.7L451 54.9L475 93.7Z" fill="#562e0e" stroke="#562e0e"></path><path d="M292 88.7L313 146.6L381 100.7Z" fill="#60330e" stroke="#60330e"></path><path d="M280 153.4L272 141.6L253 195.3Z" fill="#7a481f" stroke="#7a481f"></path><path d="M249 371.7L280 427.6L305 414.6Z" fill="#8c562b" stroke="#8c562b"></path><path d="M571 67.9L527 61.7L516 100.6Z" fill="#5b300e" stroke="#5b300e"></path><path d="M682 274L615 282L646 314.9Z" fill="#5b300e" stroke="#5b300e"></path><path d="M642 178.4L654 133.6L613 124.6Z" fill="#4c290e" stroke="#4c290e"></path><path d="M344 500.3L359 488.4L319 453.4Z" fill="#4c290e" stroke="#4c290e"></path><path d="M319 453.4L359 488.4L385 429.6Z" fill="#60330e" stroke="#60330e"></path><path d="M455 485.3L470 530.1L469 485.4Z" fill="#4c290e" stroke="#4c290e"></path><path d="M697 286.1L682 274L646 314.9Z" fill="#8c562b" stroke="#8c562b"></path><path d="M679 406.6L669 355.7L645 363.9Z" fill="#47260e" stroke="#47260e"></path><path d="M659 354.7L669 355.7L646 314.9Z" fill="#562e0e" stroke="#562e0e"></path><path d="M613 124.6L608 103.7L599 111.6Z" fill="#8c562b" stroke="#8c562b"></path><path d="M599 111.6L571 67.9L516 100.6Z" fill="#5b300e" stroke="#5b300e"></path><path d="M627 85.7L608 103.7L613 124.6Z" fill="#4c290e" stroke="#4c290e"></path><path d="M608 103.7L571 67.9L599 111.6Z" fill="#834f25" stroke="#834f25"></path><path d="M527 61.7L469 36.9L478 56.7Z" fill="#562e0e" stroke="#562e0e"></path><path d="M478 56.7L469 36.9L451 54.9Z" fill="#512b0e" stroke="#512b0e"></path><path d="M398 0L350 22.9L398 65.9Z" fill="#834f25" stroke="#834f25"></path><path d="M456 0L469 36.9L467 0Z" fill="#5b300e" stroke="#5b300e"></path><path d="M367 519.3L430 522.3L423 471.4Z" fill="#5b300e" stroke="#5b300e"></path><path d="M592 487.4L606 430.6L539 448.4Z" fill="#7a481f" stroke="#7a481f"></path><path d="M669 355.7L697 286.1L646 314.9Z" fill="#512b0e" stroke="#512b0e"></path><path d="M682 274L691 198.4L662 186.3Z" fill="#60330e" stroke="#60330e"></path><path d="M165 298L221 362.7L250 324.9Z" fill="#693a14" stroke="#693a14"></path><path d="M249 371.7L220 456.6L280 427.6Z" fill="#60330e" stroke="#60330e"></path><path d="M165 298L250 324.9L237 279Z" fill="#693a14" stroke="#693a14"></path><path d="M271 498.3L344 500.3L319 453.4Z" fill="#512b0e" stroke="#512b0e"></path><path d="M359 488.4L367 519.3L423 471.4Z" fill="#714119" stroke="#714119"></path><path d="M275 468.4L319 453.4L280 427.6Z" fill="#60330e" stroke="#60330e"></path><path d="M296 56.7L381 100.7L337 26.9Z" fill="#7a481f" stroke="#7a481f"></path><path d="M296 56.7L292 88.7L381 100.7Z" fill="#4c290e" stroke="#4c290e"></path><path d="M592 487.4L539 448.4L550 525.3Z" fill="#562e0e" stroke="#562e0e"></path><path d="M606 430.6L639 441.6L645 363.9Z" fill="#714119" stroke="#714119"></path><path d="M749 334.9L735 285L697 286.1Z" fill="#47260e" stroke="#47260e"></path><path d="M696 168.4L654 133.6L662 186.3Z" fill="#8c562b" stroke="#8c562b"></path><path d="M662 186.3L654 133.6L642 178.4Z" fill="#8c562b" stroke="#8c562b"></path><path d="M608 103.7L627 85.7L571 67.9Z" fill="#562e0e" stroke="#562e0e"></path><path d="M488 532.3L474 475.4L469 485.4Z" fill="#512b0e" stroke="#512b0e"></path><path d="M707 207.3L691 198.4L682 274Z" fill="#7a481f" stroke="#7a481f"></path><path d="M430 522.3L470 530.1L455 485.3Z" fill="#714119" stroke="#714119"></path><path d="M592 487.4L628 461.4L606 430.6Z" fill="#4c290e" stroke="#4c290e"></path><path d="M344 500.3L367 519.3L359 488.4Z" fill="#834f25" stroke="#834f25"></path><path d="M430 522.3L456 550.1L470 530.1Z" fill="#714119" stroke="#714119"></path><path d="M456 550.1L488 532.3L470 530.1Z" fill="#5b300e" stroke="#5b300e"></path><path d="M470 530.1L488 532.3L469 485.4Z" fill="#60330e" stroke="#60330e"></path><path d="M220 456.6L275 468.4L280 427.6Z" fill="#4c290e" stroke="#4c290e"></path><path d="M299 543.1L382 548.1L367 519.3Z" fill="#7a481f" stroke="#7a481f"></path><path d="M198 142.6L204 199.4L253 195.3Z" fill="#512b0e" stroke="#512b0e"></path><path d="M253 195.3L196 227.3L246 260.1Z" fill="#47260e" stroke="#47260e"></path><path d="M198 142.6L253 195.3L272 141.6Z" fill="#5b300e" stroke="#5b300e"></path><path d="M654 133.6L627 85.7L613 124.6Z" fill="#8c562b" stroke="#8c562b"></path><path d="M666 68.9L627 85.7L654 133.6Z" fill="#4c290e" stroke="#4c290e"></path><path d="M204 199.4L196 227.3L253 195.3Z" fill="#47260e" stroke="#47260e"></path><path d="M671 446.4L679 406.6L639 441.6Z" fill="#512b0e" stroke="#512b0e"></path><path d="M639 441.6L679 406.6L645 363.9Z" fill="#60330e" stroke="#60330e"></path><path d="M292 88.7L252 109.7L272 141.6Z" fill="#5b300e" stroke="#5b300e"></path><path d="M731 253.1L707 207.3L682 274Z" fill="#4c290e" stroke="#4c290e"></path><path d="M691 198.4L696 168.4L662 186.3Z" fill="#5b300e" stroke="#5b300e"></path><path d="M488 532.3L550 525.3L474 475.4Z" fill="#7a481f" stroke="#7a481f"></path><path d="M645 495.3L671 446.4L628 461.4Z" fill="#834f25" stroke="#834f25"></path><path d="M707 207.3L696 168.4L691 198.4Z" fill="#714119" stroke="#714119"></path><path d="M337 26.9L381 100.7L398 65.9Z" fill="#5b300e" stroke="#5b300e"></path><path d="M292 88.7L251 65.9L252 109.7Z" fill="#714119" stroke="#714119"></path><path d="M390 555.1L456 550.1L430 522.3Z" fill="#562e0e" stroke="#562e0e"></path><path d="M528 600L561 576.1L550 525.3Z" fill="#512b0e" stroke="#512b0e"></path><path d="M174 243.3L182 241.1L196 227.3Z" fill="#4c290e" stroke="#4c290e"></path><path d="M196 227.3L182 241.1L237 279Z" fill="#47260e" stroke="#47260e"></path><path d="M398 0L398 65.9L451 54.9Z" fill="#562e0e" stroke="#562e0e"></path><path d="M350 22.9L337 26.9L398 65.9Z" fill="#834f25" stroke="#834f25"></path><path d="M628 461.4L671 446.4L639 441.6Z" fill="#714119" stroke="#714119"></path><path d="M610 510.3L628 461.4L592 487.4Z" fill="#714119" stroke="#714119"></path><path d="M467 0L469 36.9L534 0Z" fill="#512b0e" stroke="#512b0e"></path><path d="M469 36.9L456 0L451 54.9Z" fill="#562e0e" stroke="#562e0e"></path><path d="M469 36.9L527 61.7L539 11.9Z" fill="#47260e" stroke="#47260e"></path><path d="M539 11.9L527 61.7L571 67.9Z" fill="#8c562b" stroke="#8c562b"></path><path d="M299 543.1L367 519.3L344 500.3Z" fill="#714119" stroke="#714119"></path><path d="M367 519.3L382 548.1L430 522.3Z" fill="#7a481f" stroke="#7a481f"></path><path d="M124 186.4L174 243.3L196 227.3Z" fill="#8c562b" stroke="#8c562b"></path><path d="M182 241.1L165 298L237 279Z" fill="#47260e" stroke="#47260e"></path><path d="M125 231.1L174 243.3L124 186.4Z" fill="#5b300e" stroke="#5b300e"></path><path d="M556 0L539 11.9L571 67.9Z" fill="#714119" stroke="#714119"></path><path d="M697 286.1L731 253.1L682 274Z" fill="#4c290e" stroke="#4c290e"></path><path d="M736 120.6L699 96.7L696 168.4Z" fill="#60330e" stroke="#60330e"></path><path d="M735 285L731 253.1L697 286.1Z" fill="#7a481f" stroke="#7a481f"></path><path d="M697 286.1L669 355.7L749 334.9Z" fill="#693a14" stroke="#693a14"></path><path d="M577 582.1L610 510.3L550 525.3Z" fill="#512b0e" stroke="#512b0e"></path><path d="M550 525.3L610 510.3L592 487.4Z" fill="#693a14" stroke="#693a14"></path><path d="M456 0L398 0L451 54.9Z" fill="#693a14" stroke="#693a14"></path><path d="M350 22.9L318 0L337 26.9Z" fill="#8c562b" stroke="#8c562b"></path><path d="M749 334.9L669 355.7L751 339.9Z" fill="#8c562b" stroke="#8c562b"></path><path d="M395 600L390 555.1L334 600Z" fill="#512b0e" stroke="#512b0e"></path><path d="M382 548.1L390 555.1L430 522.3Z" fill="#714119" stroke="#714119"></path><path d="M237 508.3L271 498.3L275 468.4Z" fill="#60330e" stroke="#60330e"></path><path d="M275 468.4L271 498.3L319 453.4Z" fill="#5b300e" stroke="#5b300e"></path><path d="M220 456.6L249 371.7L199 443.4Z" fill="#4c290e" stroke="#4c290e"></path><path d="M174 243.3L165 298L182 241.1Z" fill="#834f25" stroke="#834f25"></path><path d="M203 105.7L198 142.6L252 109.7Z" fill="#8c562b" stroke="#8c562b"></path><path d="M252 109.7L198 142.6L272 141.6Z" fill="#47260e" stroke="#47260e"></path><path d="M165 298L172 352.9L221 362.7Z" fill="#693a14" stroke="#693a14"></path><path d="M556 0L534 0L539 11.9Z" fill="#8c562b" stroke="#8c562b"></path><path d="M539 11.9L534 0L469 36.9Z" fill="#834f25" stroke="#834f25"></path><path d="M610 510.3L645 495.3L628 461.4Z" fill="#834f25" stroke="#834f25"></path><path d="M398 0L365 0L350 22.9Z" fill="#47260e" stroke="#47260e"></path><path d="M242 35.9L251 65.9L296 56.7Z" fill="#834f25" stroke="#834f25"></path><path d="M318 0L296 56.7L337 26.9Z" fill="#562e0e" stroke="#562e0e"></path><path d="M296 56.7L251 65.9L292 88.7Z" fill="#60330e" stroke="#60330e"></path><path d="M199 443.4L249 371.7L221 362.7Z" fill="#4c290e" stroke="#4c290e"></path><path d="M203 105.7L187 145.4L198 142.6Z" fill="#8c562b" stroke="#8c562b"></path><path d="M198 142.6L187 145.4L204 199.4Z" fill="#4c290e" stroke="#4c290e"></path><path d="M142 299L158 332.9L165 298Z" fill="#714119" stroke="#714119"></path><path d="M610 0L556 0L571 67.9Z" fill="#562e0e" stroke="#562e0e"></path><path d="M610 0L571 67.9L627 85.7Z" fill="#8c562b" stroke="#8c562b"></path><path d="M165 298L158 332.9L172 352.9Z" fill="#714119" stroke="#714119"></path><path d="M171 391.7L199 443.4L221 362.7Z" fill="#693a14" stroke="#693a14"></path><path d="M142 299L165 298L174 243.3Z" fill="#714119" stroke="#714119"></path><path d="M699 96.7L654 133.6L696 168.4Z" fill="#714119" stroke="#714119"></path><path d="M699 96.7L666 68.9L654 133.6Z" fill="#693a14" stroke="#693a14"></path><path d="M171 391.7L221 362.7L172 352.9Z" fill="#8c562b" stroke="#8c562b"></path><path d="M237 508.3L299 543.1L271 498.3Z" fill="#4c290e" stroke="#4c290e"></path><path d="M251 65.9L203 105.7L252 109.7Z" fill="#693a14" stroke="#693a14"></path><path d="M751 339.9L669 355.7L737 400.6Z" fill="#47260e" stroke="#47260e"></path><path d="M735 285L772 274L731 253.1Z" fill="#47260e" stroke="#47260e"></path><path d="M669 355.7L679 406.6L737 400.6Z" fill="#47260e" stroke="#47260e"></path><path d="M130 379.7L171 391.7L172 352.9Z" fill="#4c290e" stroke="#4c290e"></path><path d="M737 400.6L679 406.6L745 440.6Z" fill="#714119" stroke="#714119"></path><path d="M749 334.9L772 274L735 285Z" fill="#7a481f" stroke="#7a481f"></path><path d="M237 508.3L275 468.4L220 456.6Z" fill="#714119" stroke="#714119"></path><path d="M271 498.3L299 543.1L344 500.3Z" fill="#714119" stroke="#714119"></path><path d="M788 237.3L707 207.3L731 253.1Z" fill="#47260e" stroke="#47260e"></path><path d="M736 120.6L696 168.4L774 150.4Z" fill="#5b300e" stroke="#5b300e"></path><path d="M365 0L318 0L350 22.9Z" fill="#5b300e" stroke="#5b300e"></path><path d="M251 65.9L189 28.9L203 105.7Z" fill="#834f25" stroke="#834f25"></path><path d="M125 231.1L142 299L174 243.3Z" fill="#7a481f" stroke="#7a481f"></path><path d="M119 437.6L166 445.6L171 391.7Z" fill="#7a481f" stroke="#7a481f"></path><path d="M743 404.7L737 400.6L745 440.6Z" fill="#47260e" stroke="#47260e"></path><path d="M195 490.3L237 508.3L220 456.6Z" fill="#693a14" stroke="#693a14"></path><path d="M484 600L488 532.3L456 550.1Z" fill="#8c562b" stroke="#8c562b"></path><path d="M528 600L550 525.3L488 532.3Z" fill="#7a481f" stroke="#7a481f"></path><path d="M610 510.3L666 523.3L645 495.3Z" fill="#693a14" stroke="#693a14"></path><path d="M745 440.6L679 406.6L671 446.4Z" fill="#4c290e" stroke="#4c290e"></path><path d="M737 400.6L743 404.7L751 339.9Z" fill="#8c562b" stroke="#8c562b"></path><path d="M702 498.4L671 446.4L645 495.3Z" fill="#512b0e" stroke="#512b0e"></path><path d="M653 22.9L627 85.7L666 68.9Z" fill="#60330e" stroke="#60330e"></path><path d="M653 22.9L610 0L627 85.7Z" fill="#714119" stroke="#714119"></path><path d="M786 268.1L772 274L819 291Z" fill="#8c562b" stroke="#8c562b"></path><path d="M819 291L772 274L749 334.9Z" fill="#4c290e" stroke="#4c290e"></path><path d="M269 0L242 35.9L296 56.7Z" fill="#5b300e" stroke="#5b300e"></path><path d="M395 600L424 600L390 555.1Z" fill="#5b300e" stroke="#5b300e"></path><path d="M390 555.1L424 600L456 550.1Z" fill="#4c290e" stroke="#4c290e"></path><path d="M424 600L484 600L456 550.1Z" fill="#562e0e" stroke="#562e0e"></path><path d="M774 150.4L696 168.4L707 207.3Z" fill="#5b300e" stroke="#5b300e"></path><path d="M672 0L653 22.9L726 19.9Z" fill="#47260e" stroke="#47260e"></path><path d="M653 22.9L666 68.9L726 19.9Z" fill="#4c290e" stroke="#4c290e"></path><path d="M625 583.1L666 523.3L610 510.3Z" fill="#714119" stroke="#714119"></path><path d="M334 600L382 548.1L299 543.1Z" fill="#834f25" stroke="#834f25"></path><path d="M334 600L390 555.1L382 548.1Z" fill="#714119" stroke="#714119"></path><path d="M575 600L577 582.1L561 576.1Z" fill="#7a481f" stroke="#7a481f"></path><path d="M561 576.1L577 582.1L550 525.3Z" fill="#512b0e" stroke="#512b0e"></path><path d="M124 186.4L204 199.4L187 145.4Z" fill="#8c562b" stroke="#8c562b"></path><path d="M124 186.4L196 227.3L204 199.4Z" fill="#562e0e" stroke="#562e0e"></path><path d="M124 186.4L187 145.4L148 124.6Z" fill="#8c562b" stroke="#8c562b"></path><path d="M484 600L528 600L488 532.3Z" fill="#714119" stroke="#714119"></path><path d="M171 391.7L166 445.6L199 443.4Z" fill="#4c290e" stroke="#4c290e"></path><path d="M199 443.4L195 490.3L220 456.6Z" fill="#5b300e" stroke="#5b300e"></path><path d="M130 379.7L172 352.9L158 332.9Z" fill="#512b0e" stroke="#512b0e"></path><path d="M117 308L158 332.9L142 299Z" fill="#4c290e" stroke="#4c290e"></path><path d="M318 0L269 0L296 56.7Z" fill="#834f25" stroke="#834f25"></path><path d="M166 445.6L195 490.3L199 443.4Z" fill="#5b300e" stroke="#5b300e"></path><path d="M306 600L334 600L299 543.1Z" fill="#4c290e" stroke="#4c290e"></path><path d="M666 523.3L702 498.4L645 495.3Z" fill="#714119" stroke="#714119"></path><path d="M805 354.7L749 334.9L751 339.9Z" fill="#714119" stroke="#714119"></path><path d="M772 274L788 237.3L731 253.1Z" fill="#47260e" stroke="#47260e"></path><path d="M702 498.4L745 440.6L671 446.4Z" fill="#4c290e" stroke="#4c290e"></path><path d="M743 404.7L805 354.7L751 339.9Z" fill="#47260e" stroke="#47260e"></path><path d="M756 110.7L738 103.7L736 120.6Z" fill="#5b300e" stroke="#5b300e"></path><path d="M736 120.6L738 103.7L699 96.7Z" fill="#512b0e" stroke="#512b0e"></path><path d="M84 269.1L117 308L142 299Z" fill="#714119" stroke="#714119"></path><path d="M145 490.3L196 496.4L195 490.3Z" fill="#7a481f" stroke="#7a481f"></path><path d="M195 490.3L196 496.4L237 508.3Z" fill="#714119" stroke="#714119"></path><path d="M117 308L130 379.7L158 332.9Z" fill="#693a14" stroke="#693a14"></path><path d="M786 268.1L788 237.3L772 274Z" fill="#834f25" stroke="#834f25"></path><path d="M148 124.6L187 145.4L154 108.6Z" fill="#834f25" stroke="#834f25"></path><path d="M125 231.1L84 269.1L142 299Z" fill="#60330e" stroke="#60330e"></path><path d="M187 145.4L203 105.7L154 108.6Z" fill="#60330e" stroke="#60330e"></path><path d="M154 108.6L203 105.7L158 52.9Z" fill="#512b0e" stroke="#512b0e"></path><path d="M189 28.9L251 65.9L242 35.9Z" fill="#4c290e" stroke="#4c290e"></path><path d="M106 184.3L115 192.4L124 186.4Z" fill="#693a14" stroke="#693a14"></path><path d="M306 600L299 543.1L240 570.1Z" fill="#47260e" stroke="#47260e"></path><path d="M528 600L575 600L561 576.1Z" fill="#512b0e" stroke="#512b0e"></path><path d="M577 582.1L625 583.1L610 510.3Z" fill="#8c562b" stroke="#8c562b"></path><path d="M666 523.3L685 564.1L702 498.4Z" fill="#8c562b" stroke="#8c562b"></path><path d="M788 237.3L774 150.4L707 207.3Z" fill="#714119" stroke="#714119"></path><path d="M774 150.4L756 110.7L736 120.6Z" fill="#5b300e" stroke="#5b300e"></path><path d="M734 38.9L666 68.9L699 96.7Z" fill="#562e0e" stroke="#562e0e"></path><path d="M106 184.3L124 186.4L108 115.7Z" fill="#512b0e" stroke="#512b0e"></path><path d="M124 186.4L115 192.4L125 231.1Z" fill="#5b300e" stroke="#5b300e"></path><path d="M575 600L625 583.1L577 582.1Z" fill="#5b300e" stroke="#5b300e"></path><path d="M119 437.6L147 454.4L166 445.6Z" fill="#512b0e" stroke="#512b0e"></path><path d="M166 445.6L145 490.3L195 490.3Z" fill="#8c562b" stroke="#8c562b"></path><path d="M240 570.1L299 543.1L237 508.3Z" fill="#7a481f" stroke="#7a481f"></path><path d="M240 570.1L237 508.3L169 554.1Z" fill="#562e0e" stroke="#562e0e"></path><path d="M734 38.9L699 96.7L738 103.7Z" fill="#47260e" stroke="#47260e"></path><path d="M653 22.9L672 0L610 0Z" fill="#834f25" stroke="#834f25"></path><path d="M130 379.7L116 399.6L171 391.7Z" fill="#693a14" stroke="#693a14"></path><path d="M76 364.7L116 399.6L130 379.7Z" fill="#714119" stroke="#714119"></path><path d="M78 333.9L130 379.7L117 308Z" fill="#693a14" stroke="#693a14"></path><path d="M791 425.6L782 413.7L745 440.6Z" fill="#7a481f" stroke="#7a481f"></path><path d="M745 440.6L782 413.7L743 404.7Z" fill="#8c562b" stroke="#8c562b"></path><path d="M786 268.1L836 228.1L788 237.3Z" fill="#47260e" stroke="#47260e"></path><path d="M791 425.6L745 440.6L778 468.4Z" fill="#4c290e" stroke="#4c290e"></path><path d="M115 192.4L96 239.3L125 231.1Z" fill="#60330e" stroke="#60330e"></path><path d="M108 115.7L124 186.4L148 124.6Z" fill="#60330e" stroke="#60330e"></path><path d="M115 192.4L106 184.3L96 239.3Z" fill="#47260e" stroke="#47260e"></path><path d="M224 583.1L240 570.1L169 554.1Z" fill="#512b0e" stroke="#512b0e"></path><path d="M782 413.7L805 354.7L743 404.7Z" fill="#60330e" stroke="#60330e"></path><path d="M198 0L189 28.9L242 35.9Z" fill="#714119" stroke="#714119"></path><path d="M154 108.6L108 115.7L148 124.6Z" fill="#512b0e" stroke="#512b0e"></path><path d="M780 107.6L771 97.6L756 110.7Z" fill="#60330e" stroke="#60330e"></path><path d="M756 110.7L771 97.6L738 103.7Z" fill="#47260e" stroke="#47260e"></path><path d="M788 237.3L795 153.4L774 150.4Z" fill="#693a14" stroke="#693a14"></path><path d="M835 196.3L795 153.4L788 237.3Z" fill="#4c290e" stroke="#4c290e"></path><path d="M780 107.6L756 110.7L774 150.4Z" fill="#8c562b" stroke="#8c562b"></path><path d="M805 354.7L819 291L749 334.9Z" fill="#4c290e" stroke="#4c290e"></path><path d="M37 234.1L84 269.1L96 239.3Z" fill="#60330e" stroke="#60330e"></path><path d="M96 239.3L84 269.1L125 231.1Z" fill="#5b300e" stroke="#5b300e"></path><path d="M116 399.6L119 437.6L171 391.7Z" fill="#714119" stroke="#714119"></path><path d="M147 454.4L145 490.3L166 445.6Z" fill="#5b300e" stroke="#5b300e"></path><path d="M95 459.4L119 437.6L116 399.6Z" fill="#693a14" stroke="#693a14"></path><path d="M656 600L685 564.1L625 583.1Z" fill="#693a14" stroke="#693a14"></path><path d="M625 583.1L685 564.1L666 523.3Z" fill="#47260e" stroke="#47260e"></path><path d="M778 468.4L745 440.6L702 498.4Z" fill="#693a14" stroke="#693a14"></path><path d="M782 413.7L857 381.7L805 354.7Z" fill="#8c562b" stroke="#8c562b"></path><path d="M805 354.7L830 343.9L819 291Z" fill="#60330e" stroke="#60330e"></path><path d="M795 153.4L780 107.6L774 150.4Z" fill="#834f25" stroke="#834f25"></path><path d="M771 97.6L734 38.9L738 103.7Z" fill="#834f25" stroke="#834f25"></path><path d="M726 19.9L734 38.9L741 0Z" fill="#4c290e" stroke="#4c290e"></path><path d="M189 28.9L158 52.9L203 105.7Z" fill="#7a481f" stroke="#7a481f"></path><path d="M95 459.4L145 490.3L147 454.4Z" fill="#47260e" stroke="#47260e"></path><path d="M269 0L198 0L242 35.9Z" fill="#7a481f" stroke="#7a481f"></path><path d="M150 0L140 54.7L158 52.9Z" fill="#693a14" stroke="#693a14"></path><path d="M728 0L726 19.9L741 0Z" fill="#562e0e" stroke="#562e0e"></path><path d="M734 38.9L726 19.9L666 68.9Z" fill="#714119" stroke="#714119"></path><path d="M783 492.3L778 468.4L702 498.4Z" fill="#60330e" stroke="#60330e"></path><path d="M67 314.9L78 333.9L117 308Z" fill="#714119" stroke="#714119"></path><path d="M140 54.7L154 108.6L158 52.9Z" fill="#8c562b" stroke="#8c562b"></path><path d="M140 54.7L108 115.7L154 108.6Z" fill="#8c562b" stroke="#8c562b"></path><path d="M106 184.3L37 234.1L96 239.3Z" fill="#693a14" stroke="#693a14"></path><path d="M242 600L249 600L240 570.1Z" fill="#693a14" stroke="#693a14"></path><path d="M240 570.1L249 600L306 600Z" fill="#5b300e" stroke="#5b300e"></path><path d="M169 554.1L237 508.3L196 496.4Z" fill="#60330e" stroke="#60330e"></path><path d="M575 600L656 600L625 583.1Z" fill="#512b0e" stroke="#512b0e"></path><path d="M748 543.3L749 536.1L702 498.4Z" fill="#512b0e" stroke="#512b0e"></path><path d="M171 0L158 52.9L189 28.9Z" fill="#562e0e" stroke="#562e0e"></path><path d="M857 381.7L782 413.7L791 425.6Z" fill="#47260e" stroke="#47260e"></path><path d="M857 381.7L830 343.9L805 354.7Z" fill="#693a14" stroke="#693a14"></path><path d="M819 291L836 228.1L786 268.1Z" fill="#60330e" stroke="#60330e"></path><path d="M224 583.1L242 600L240 570.1Z" fill="#714119" stroke="#714119"></path><path d="M78 333.9L76 364.7L130 379.7Z" fill="#693a14" stroke="#693a14"></path><path d="M130 569.1L169 554.1L145 490.3Z" fill="#60330e" stroke="#60330e"></path><path d="M84 269.1L67 314.9L117 308Z" fill="#5b300e" stroke="#5b300e"></path><path d="M78 333.9L51 374.7L76 364.7Z" fill="#4c290e" stroke="#4c290e"></path><path d="M22 273L67 314.9L84 269.1Z" fill="#512b0e" stroke="#512b0e"></path><path d="M851 275L836 228.1L819 291Z" fill="#7a481f" stroke="#7a481f"></path><path d="M795 153.4L831 141.4L780 107.6Z" fill="#60330e" stroke="#60330e"></path><path d="M656 600L672 600L685 564.1Z" fill="#47260e" stroke="#47260e"></path><path d="M836 228.1L835 196.3L788 237.3Z" fill="#714119" stroke="#714119"></path><path d="M741 0L734 38.9L797 17.9Z" fill="#714119" stroke="#714119"></path><path d="M734 38.9L771 97.6L797 17.9Z" fill="#562e0e" stroke="#562e0e"></path><path d="M726 19.9L728 0L672 0Z" fill="#512b0e" stroke="#512b0e"></path><path d="M748 543.3L702 498.4L685 564.1Z" fill="#714119" stroke="#714119"></path><path d="M749 536.1L783 492.3L702 498.4Z" fill="#693a14" stroke="#693a14"></path><path d="M778 468.4L828 468.4L791 425.6Z" fill="#512b0e" stroke="#512b0e"></path><path d="M145 490.3L169 554.1L196 496.4Z" fill="#693a14" stroke="#693a14"></path><path d="M224 583.1L208 600L242 600Z" fill="#512b0e" stroke="#512b0e"></path><path d="M95 459.4L147 454.4L119 437.6Z" fill="#8c562b" stroke="#8c562b"></path><path d="M198 0L171 0L189 28.9Z" fill="#562e0e" stroke="#562e0e"></path><path d="M726 585.1L748 543.3L685 564.1Z" fill="#562e0e" stroke="#562e0e"></path><path d="M808 513.3L809 500.4L783 492.3Z" fill="#7a481f" stroke="#7a481f"></path><path d="M881 236.1L842 184.3L835 196.3Z" fill="#693a14" stroke="#693a14"></path><path d="M830 343.9L851 275L819 291Z" fill="#5b300e" stroke="#5b300e"></path><path d="M51 374.7L95 459.4L116 399.6Z" fill="#562e0e" stroke="#562e0e"></path><path d="M823 82.7L771 97.6L780 107.6Z" fill="#47260e" stroke="#47260e"></path><path d="M881 236.1L835 196.3L836 228.1Z" fill="#834f25" stroke="#834f25"></path><path d="M835 196.3L842 184.3L795 153.4Z" fill="#693a14" stroke="#693a14"></path><path d="M837 153.6L831 141.4L795 153.4Z" fill="#512b0e" stroke="#512b0e"></path><path d="M169 554.1L208 600L224 583.1Z" fill="#8c562b" stroke="#8c562b"></path><path d="M842 184.3L837 153.6L795 153.4Z" fill="#7a481f" stroke="#7a481f"></path><path d="M672 600L705 600L685 564.1Z" fill="#5b300e" stroke="#5b300e"></path><path d="M171 0L150 0L158 52.9Z" fill="#4c290e" stroke="#4c290e"></path><path d="M50 118.6L65 140.6L108 115.7Z" fill="#8c562b" stroke="#8c562b"></path><path d="M105 29.9L108 115.7L140 54.7Z" fill="#47260e" stroke="#47260e"></path><path d="M108 115.7L65 140.6L106 184.3Z" fill="#7a481f" stroke="#7a481f"></path><path d="M705 600L726 585.1L685 564.1Z" fill="#7a481f" stroke="#7a481f"></path><path d="M808 513.3L783 492.3L749 536.1Z" fill="#714119" stroke="#714119"></path><path d="M67 314.9L51 374.7L78 333.9Z" fill="#693a14" stroke="#693a14"></path><path d="M76 364.7L51 374.7L116 399.6Z" fill="#4c290e" stroke="#4c290e"></path><path d="M0 344.9L51 374.7L67 314.9Z" fill="#4c290e" stroke="#4c290e"></path><path d="M15 185.3L37 234.1L106 184.3Z" fill="#47260e" stroke="#47260e"></path><path d="M871 407.6L857 381.7L791 425.6Z" fill="#714119" stroke="#714119"></path><path d="M900 336.9L900 293L851 275Z" fill="#512b0e" stroke="#512b0e"></path><path d="M809 500.4L778 468.4L783 492.3Z" fill="#693a14" stroke="#693a14"></path><path d="M857 381.7L860 369.9L830 343.9Z" fill="#714119" stroke="#714119"></path><path d="M879 95.7L823 82.7L831 141.4Z" fill="#714119" stroke="#714119"></path><path d="M831 141.4L823 82.7L780 107.6Z" fill="#47260e" stroke="#47260e"></path><path d="M808 513.3L749 536.1L748 543.3Z" fill="#4c290e" stroke="#4c290e"></path><path d="M809 500.4L828 468.4L778 468.4Z" fill="#60330e" stroke="#60330e"></path><path d="M150 0L105 29.9L140 54.7Z" fill="#714119" stroke="#714119"></path><path d="M826 540.1L808 513.3L794 584.1Z" fill="#693a14" stroke="#693a14"></path><path d="M809 500.4L844 507.3L828 468.4Z" fill="#60330e" stroke="#60330e"></path><path d="M0 283L22 273L0 237.3Z" fill="#834f25" stroke="#834f25"></path><path d="M37 234.1L22 273L84 269.1Z" fill="#714119" stroke="#714119"></path><path d="M851 275L881 236.1L836 228.1Z" fill="#8c562b" stroke="#8c562b"></path><path d="M842 184.3L900 177.4L837 153.6Z" fill="#7a481f" stroke="#7a481f"></path><path d="M900 140.6L879 95.7L831 141.4Z" fill="#693a14" stroke="#693a14"></path><path d="M900 243.1L881 236.1L851 275Z" fill="#7a481f" stroke="#7a481f"></path><path d="M105 29.9L50 118.6L108 115.7Z" fill="#834f25" stroke="#834f25"></path><path d="M65 140.6L15 185.3L106 184.3Z" fill="#60330e" stroke="#60330e"></path><path d="M823 82.7L797 17.9L771 97.6Z" fill="#8c562b" stroke="#8c562b"></path><path d="M97 539.3L130 569.1L145 490.3Z" fill="#5b300e" stroke="#5b300e"></path><path d="M169 554.1L153 600L208 600Z" fill="#47260e" stroke="#47260e"></path><path d="M97 539.3L145 490.3L95 459.4Z" fill="#8c562b" stroke="#8c562b"></path><path d="M705 600L745 600L726 585.1Z" fill="#8c562b" stroke="#8c562b"></path><path d="M726 585.1L745 600L748 543.3Z" fill="#60330e" stroke="#60330e"></path><path d="M900 470.4L871 407.6L828 468.4Z" fill="#60330e" stroke="#60330e"></path><path d="M828 468.4L871 407.6L791 425.6Z" fill="#8c562b" stroke="#8c562b"></path><path d="M857 381.7L900 392.7L860 369.9Z" fill="#8c562b" stroke="#8c562b"></path><path d="M900 336.9L851 275L830 343.9Z" fill="#47260e" stroke="#47260e"></path><path d="M130 569.1L153 600L169 554.1Z" fill="#47260e" stroke="#47260e"></path><path d="M19 412.6L95 459.4L51 374.7Z" fill="#693a14" stroke="#693a14"></path><path d="M55 541.1L97 539.3L95 459.4Z" fill="#693a14" stroke="#693a14"></path><path d="M130 569.1L120 585.1L153 600Z" fill="#512b0e" stroke="#512b0e"></path><path d="M14 175.4L15 185.3L65 140.6Z" fill="#693a14" stroke="#693a14"></path><path d="M900 336.9L830 343.9L860 369.9Z" fill="#8c562b" stroke="#8c562b"></path><path d="M0 147.6L14 175.4L65 140.6Z" fill="#512b0e" stroke="#512b0e"></path><path d="M0 237.3L22 273L37 234.1Z" fill="#8c562b" stroke="#8c562b"></path><path d="M0 177.4L14 175.4L0 147.6Z" fill="#562e0e" stroke="#562e0e"></path><path d="M900 293L900 243.1L851 275Z" fill="#834f25" stroke="#834f25"></path><path d="M881 236.1L900 211.3L842 184.3Z" fill="#562e0e" stroke="#562e0e"></path><path d="M823 82.7L869 54.9L797 17.9Z" fill="#7a481f" stroke="#7a481f"></path><path d="M0 237.3L37 234.1L15 185.3Z" fill="#4c290e" stroke="#4c290e"></path><path d="M22 273L0 286.1L67 314.9Z" fill="#8c562b" stroke="#8c562b"></path><path d="M0 283L0 286.1L22 273Z" fill="#4c290e" stroke="#4c290e"></path><path d="M97 539.3L120 585.1L130 569.1Z" fill="#834f25" stroke="#834f25"></path><path d="M900 392.7L900 336.9L860 369.9Z" fill="#4c290e" stroke="#4c290e"></path><path d="M0 379.7L19 412.6L51 374.7Z" fill="#512b0e" stroke="#512b0e"></path><path d="M97 539.3L88 600L120 585.1Z" fill="#714119" stroke="#714119"></path><path d="M900 243.1L900 211.3L881 236.1Z" fill="#714119" stroke="#714119"></path><path d="M0 177.4L0 237.3L15 185.3Z" fill="#60330e" stroke="#60330e"></path><path d="M808 513.3L844 507.3L809 500.4Z" fill="#47260e" stroke="#47260e"></path><path d="M871 407.6L900 392.7L857 381.7Z" fill="#60330e" stroke="#60330e"></path><path d="M826 540.1L844 507.3L808 513.3Z" fill="#512b0e" stroke="#512b0e"></path><path d="M0 286.1L0 344.9L67 314.9Z" fill="#8c562b" stroke="#8c562b"></path><path d="M794 584.1L808 513.3L748 543.3Z" fill="#562e0e" stroke="#562e0e"></path><path d="M150 0L87 0L105 29.9Z" fill="#693a14" stroke="#693a14"></path><path d="M105 29.9L26 92.7L50 118.6Z" fill="#562e0e" stroke="#562e0e"></path><path d="M745 600L794 584.1L748 543.3Z" fill="#60330e" stroke="#60330e"></path><path d="M900 211.3L900 177.4L842 184.3Z" fill="#562e0e" stroke="#562e0e"></path><path d="M900 399.6L900 392.7L871 407.6Z" fill="#693a14" stroke="#693a14"></path><path d="M0 147.6L65 140.6L50 118.6Z" fill="#47260e" stroke="#47260e"></path><path d="M14 175.4L0 177.4L15 185.3Z" fill="#834f25" stroke="#834f25"></path><path d="M0 344.9L0 379.7L51 374.7Z" fill="#714119" stroke="#714119"></path><path d="M0 453.6L23 454.4L19 412.6Z" fill="#47260e" stroke="#47260e"></path><path d="M19 412.6L23 454.4L95 459.4Z" fill="#693a14" stroke="#693a14"></path><path d="M42 23.9L26 92.7L105 29.9Z" fill="#4c290e" stroke="#4c290e"></path><path d="M900 470.4L900 399.6L871 407.6Z" fill="#562e0e" stroke="#562e0e"></path><path d="M900 140.6L831 141.4L837 153.6Z" fill="#693a14" stroke="#693a14"></path><path d="M900 177.4L900 140.6L837 153.6Z" fill="#693a14" stroke="#693a14"></path><path d="M26 92.7L0 147.6L50 118.6Z" fill="#60330e" stroke="#60330e"></path><path d="M745 600L797 600L794 584.1Z" fill="#7a481f" stroke="#7a481f"></path><path d="M794 584.1L881 600L826 540.1Z" fill="#47260e" stroke="#47260e"></path><path d="M900 513.3L900 470.4L844 507.3Z" fill="#5b300e" stroke="#5b300e"></path><path d="M844 507.3L900 470.4L828 468.4Z" fill="#512b0e" stroke="#512b0e"></path><path d="M900 70.9L869 54.9L879 95.7Z" fill="#5b300e" stroke="#5b300e"></path><path d="M879 95.7L869 54.9L823 82.7Z" fill="#60330e" stroke="#60330e"></path><path d="M869 54.9L836 0L797 17.9Z" fill="#714119" stroke="#714119"></path><path d="M797 17.9L836 0L741 0Z" fill="#7a481f" stroke="#7a481f"></path><path d="M23 454.4L55 541.1L95 459.4Z" fill="#693a14" stroke="#693a14"></path><path d="M87 0L61 0L105 29.9Z" fill="#562e0e" stroke="#562e0e"></path><path d="M26 92.7L0 66.7L0 147.6Z" fill="#693a14" stroke="#693a14"></path><path d="M61 0L42 23.9L105 29.9Z" fill="#60330e" stroke="#60330e"></path><path d="M0 379.7L0 453.6L19 412.6Z" fill="#714119" stroke="#714119"></path><path d="M23 454.4L22 533.3L55 541.1Z" fill="#5b300e" stroke="#5b300e"></path><path d="M55 541.1L88 600L97 539.3Z" fill="#5b300e" stroke="#5b300e"></path><path d="M120 585.1L88 600L153 600Z" fill="#47260e" stroke="#47260e"></path><path d="M33 600L88 600L55 541.1Z" fill="#562e0e" stroke="#562e0e"></path><path d="M0 453.6L0 457.4L23 454.4Z" fill="#512b0e" stroke="#512b0e"></path><path d="M900 513.3L844 507.3L826 540.1Z" fill="#4c290e" stroke="#4c290e"></path><path d="M900 140.6L900 81.7L879 95.7Z" fill="#8c562b" stroke="#8c562b"></path><path d="M869 54.9L874 0L836 0Z" fill="#714119" stroke="#714119"></path><path d="M900 81.7L900 70.9L879 95.7Z" fill="#562e0e" stroke="#562e0e"></path><path d="M0 23.9L0 66.7L42 23.9Z" fill="#5b300e" stroke="#5b300e"></path><path d="M42 23.9L0 66.7L26 92.7Z" fill="#60330e" stroke="#60330e"></path><path d="M0 457.4L22 533.3L23 454.4Z" fill="#5b300e" stroke="#5b300e"></path><path d="M900 0L874 0L869 54.9Z" fill="#562e0e" stroke="#562e0e"></path><path d="M900 576.1L900 513.3L826 540.1Z" fill="#512b0e" stroke="#512b0e"></path><path d="M0 0L0 23.9L42 23.9Z" fill="#47260e" stroke="#47260e"></path><path d="M0 457.4L0 541.3L22 533.3Z" fill="#714119" stroke="#714119"></path><path d="M22 533.3L33 600L55 541.1Z" fill="#512b0e" stroke="#512b0e"></path><path d="M900 70.9L900 0L869 54.9Z" fill="#714119" stroke="#714119"></path><path d="M0 579.1L33 600L22 533.3Z" fill="#60330e" stroke="#60330e"></path><path d="M61 0L0 0L42 23.9Z" fill="#5b300e" stroke="#5b300e"></path><path d="M797 600L881 600L794 584.1Z" fill="#562e0e" stroke="#562e0e"></path><path d="M881 600L900 576.1L826 540.1Z" fill="#714119" stroke="#714119"></path><path d="M0 541.3L0 579.1L22 533.3Z" fill="#7a481f" stroke="#7a481f"></path><path d="M881 600L900 600L900 576.1Z" fill="#562e0e" stroke="#562e0e"></path><path d="M0 579.1L0 600L33 600Z" fill="#4c290e" stroke="#4c290e"></path></g></svg>